<svg xmlns="http://www.w3.org/2000/svg" width="512" height="512" viewBox="0 0 512 512" version="1.1"><path d="" stroke="none" fill="#e8e4e4" fill-rule="evenodd"/><path d="M 240 65.100 C 228.301 68.173, 220.929 71.349, 216.372 75.281 C 214.244 77.117, 203.197 92.743, 199.500 99.145 C 198.950 100.098, 194.225 107.542, 189 115.689 C 183.775 123.835, 179.021 131.400, 178.436 132.500 C 177.850 133.600, 174.552 138.927, 171.107 144.338 C 167.661 149.749, 165.056 154.389, 165.316 154.650 C 165.577 154.910, 164.712 156.286, 163.395 157.708 C 162.078 159.129, 161 160.846, 161 161.524 C 161 162.201, 160.325 163.315, 159.500 164 C 158.675 164.685, 158 166.020, 158 166.967 C 158 167.915, 157.100 169.505, 156 170.500 C 154.900 171.495, 154 172.883, 154 173.584 C 154 174.284, 153.368 175.489, 152.596 176.262 C 151.823 177.034, 148.148 182.804, 144.429 189.083 C 140.710 195.362, 136.971 201.625, 136.121 203 C 135.270 204.375, 133.861 206.850, 132.989 208.500 C 130.776 212.688, 128.592 216.408, 128 217 C 127.725 217.275, 127.010 218.400, 126.410 219.500 C 122.051 227.498, 119.512 231.863, 117.885 234.154 C 116.848 235.614, 116 237.527, 116 238.404 C 116 239.282, 115.583 240, 115.073 240 C 114.564 240, 113.511 241.238, 112.735 242.750 C 111.276 245.592, 110.140 247.609, 100.487 264.500 C 97.343 270, 93.625 276.525, 92.223 279 C 90.821 281.475, 86.373 289.275, 82.337 296.334 C 78.302 303.393, 75 309.364, 75 309.604 C 75 309.844, 73.875 311.822, 72.500 314 C 71.125 316.178, 70 318.438, 70 319.022 C 70 319.606, 69.100 321.050, 68 322.230 C 66.900 323.411, 66 325.192, 66 326.189 C 66 327.185, 65.644 328, 65.208 328 C 64.773 328, 63.715 329.462, 62.858 331.250 C 62 333.038, 58.517 339.675, 55.118 346 C 40.761 372.712, 39 377.624, 39 390.955 C 39 396.077, 39.497 402.120, 40.104 404.384 C 43.104 415.573, 53.401 431.461, 60.249 435.471 C 62.037 436.518, 63.950 437.956, 64.500 438.668 C 65.829 440.388, 77.553 446, 79.816 446 C 80.797 446, 82.134 446.534, 82.787 447.187 C 84.482 448.882, 107.462 448.936, 109.149 447.250 C 109.837 446.563, 111.068 446, 111.884 446 C 114.250 446, 134.836 436.164, 137 434 C 137.275 433.725, 139.075 432.625, 141 431.556 C 142.925 430.487, 145.005 429.114, 145.621 428.506 C 146.238 427.898, 149.276 425.865, 152.371 423.989 C 155.467 422.112, 158 420.223, 158 419.789 C 158 419.355, 158.480 419, 159.067 419 C 160.230 419, 167.294 413.964, 167.833 412.750 C 168.017 412.337, 168.767 412, 169.500 412 C 170.233 412, 170.983 411.642, 171.167 411.205 C 171.350 410.768, 175.493 407.505, 180.374 403.955 C 190.404 396.659, 206.587 384.330, 215.430 377.249 C 218.692 374.637, 224.143 370.475, 227.544 368 C 230.945 365.525, 236.151 361.684, 239.114 359.464 C 248.133 352.705, 272.164 337.978, 280.250 334.255 C 282.313 333.305, 284 332.184, 284 331.764 C 284 331.344, 284.533 331, 285.184 331 C 285.836 331, 288.198 330.139, 290.434 329.086 C 294.138 327.342, 299.459 324.974, 307.500 321.489 C 310.980 319.981, 317.580 317.754, 324 315.923 C 326.475 315.217, 328.950 314.324, 329.500 313.938 C 330.050 313.553, 332.075 312.988, 334 312.684 C 339.575 311.804, 352.609 309.199, 356.205 308.245 C 361.833 306.754, 394.514 307.626, 404 309.522 C 408.675 310.456, 412.928 311.620, 413.450 312.110 C 413.972 312.599, 415.216 313, 416.214 313 C 417.211 313, 418.809 313.395, 419.764 313.877 C 421.812 314.912, 426.490 316.323, 433.759 318.098 C 440.884 319.838, 442.033 318.655, 438.863 312.837 C 437.563 310.452, 436.263 308.275, 435.972 308 C 435.682 307.725, 434.601 305.587, 433.571 303.250 C 432.540 300.913, 431.315 299, 430.848 299 C 430.382 299, 430 298.100, 430 297 C 430 295.900, 429.656 295, 429.236 295 C 428.816 295, 427.701 293.313, 426.760 291.250 C 425.818 289.188, 423.621 285.025, 421.876 282 C 420.132 278.975, 417.120 273.575, 415.183 270 C 413.246 266.425, 411.400 263.275, 411.081 263 C 410.761 262.725, 408.754 259.125, 406.621 255 C 404.488 250.875, 401.739 246.150, 400.513 244.500 C 399.287 242.850, 397.396 239.700, 396.311 237.500 C 393.761 232.331, 386.109 219.037, 376.740 203.500 C 375.082 200.750, 372.598 196.475, 371.220 194 C 369.842 191.525, 367.919 188.362, 366.947 186.972 C 365.975 185.581, 363.956 182.206, 362.461 179.472 C 357.886 171.103, 357.078 169.739, 352.417 162.500 C 349.938 158.650, 347.652 154.713, 347.338 153.750 C 347.024 152.787, 346.369 152, 345.883 152 C 345.398 152, 345 151.585, 345 151.077 C 345 149.198, 314.335 100.127, 310.739 96.250 C 309.591 95.013, 308.969 94, 309.356 94 C 310.539 94, 300.472 79.740, 296.530 75.832 C 294.495 73.814, 290.281 71.183, 287.165 69.984 C 284.049 68.786, 280.600 67.459, 279.500 67.036 C 271.740 64.053, 248.350 62.906, 240 65.100 M 346.321 326.858 C 341.273 327.761, 336.810 328.837, 336.405 329.250 C 335.999 329.663, 334.823 330, 333.792 330 C 331.911 330, 319.373 333.748, 317.500 334.870 C 316.950 335.200, 316.275 335.498, 316 335.534 C 310.515 336.241, 282.612 349.987, 278.098 354.206 C 274.431 357.633, 274.385 357.949, 277.065 361.356 C 279.423 364.354, 301.359 381, 302.951 381 C 303.528 381, 304 381.392, 304 381.871 C 304 383.170, 336.092 408, 337.771 408 C 338.204 408, 339.207 408.900, 340 410 C 340.793 411.100, 341.980 412, 342.637 412 C 343.295 412, 343.983 412.348, 344.167 412.774 C 344.732 414.087, 357.228 423.210, 358.770 423.437 C 359.570 423.554, 360.618 424.353, 361.099 425.212 C 361.580 426.071, 364.342 428.265, 367.237 430.087 C 370.131 431.909, 373.825 434.479, 375.444 435.798 C 377.063 437.117, 379.313 438.608, 380.444 439.111 C 381.575 439.614, 383.850 440.847, 385.500 441.852 C 387.150 442.858, 390.300 444.261, 392.500 444.970 C 394.700 445.680, 397.131 446.765, 397.903 447.380 C 399.995 449.049, 425.584 448.857, 430 447.138 C 439.944 443.270, 448.977 438.011, 454.282 433 C 463.081 424.689, 471 412.906, 471 408.123 C 471 407.047, 471.462 406.013, 472.027 405.824 C 473.630 405.290, 474.391 386.232, 473.018 381 C 472.368 378.525, 471.597 375.262, 471.305 373.750 C 471.012 372.238, 470.374 371, 469.887 371 C 469.399 371, 469 370.309, 469 369.465 C 469 365.950, 457.970 353.190, 450.402 347.951 C 438.254 339.540, 420.624 332.376, 401 327.878 C 388.221 324.949, 359.944 324.421, 346.321 326.858" stroke="none" fill="#e4e4e4" fill-rule="evenodd"/></svg>