<?xml version="1.0" encoding="UTF-8"?>
<svg version="1.1" xmlns="http://www.w3.org/2000/svg" width="578" height="469">
<path d="M0 0 C9.46645179 3.00138365 17.92259347 2.42299079 27.71044922 1.625 C71.23833293 -1.43798467 119.70809964 7.07584882 153.5625 36.1328125 C161.41985 43.07444233 169.48713215 50.72797025 175.375 59.4375 C175.375 60.0975 175.375 60.7575 175.375 61.4375 C176.035 61.1075 176.695 60.7775 177.375 60.4375 C189.6656648 59.20843352 198.72088118 63.41050405 208.17578125 70.85546875 C213.01295741 75.18112743 216.02175406 80.54995161 219.09179688 86.19506836 C221.36219107 90.24838367 223.27047538 92.3097364 227.375 94.4375 C230.47095575 99.08143362 231.41555558 103.92194045 231.375 109.4375 C230.4375 112.5 230.4375 112.5 229.375 114.4375 C228.715 114.4375 228.055 114.4375 227.375 114.4375 C227.41427612 115.43378418 227.41427612 115.43378418 227.4543457 116.45019531 C228.2442223 139.51059246 228.2442223 139.51059246 223.46875 148.265625 C222.07514538 150.62763661 222.07514538 150.62763661 222.375 154.4375 C223.99626675 156.47447617 225.66359531 158.47564584 227.375 160.4375 C229.24545345 166.04886035 229.29485398 172.13879437 226.9375 177.625 C223.97474086 182.88737363 218.72171584 186.76414208 213.375 189.4375 C212.90772148 191.27278863 212.90772148 191.27278863 212.7421875 193.47265625 C212.65839844 194.28154297 212.57460938 195.09042969 212.48828125 195.92382812 C212.37033203 197.1990332 212.37033203 197.1990332 212.25 198.5 C212.16363281 199.35400391 212.07726562 200.20800781 211.98828125 201.08789062 C211.77552772 203.20360633 211.57420047 205.32046524 211.375 207.4375 C211.97860352 207.34662109 212.58220703 207.25574219 213.20410156 207.16210938 C239.95754375 203.18428152 239.95754375 203.18428152 245.375 204.4375 C248.27358448 207.27035694 248.87532182 210.03917345 249.625 213.9375 C250.53680403 217.89224912 250.53680403 217.89224912 253.05078125 220.90234375 C254.79793387 221.80304976 256.58553033 222.6241047 258.375 223.4375 C261.0274593 226.7819052 260.80294993 230.3006507 260.375 234.4375 C258.4375 237.75 258.4375 237.75 256.375 240.4375 C254.8328393 243.5218214 255.75711924 246.0374945 256.265625 249.41796875 C256.48174336 250.89116289 256.69763493 252.36439032 256.91333008 253.83764648 C257.02963776 254.61727753 257.14594543 255.39690857 257.26577759 256.20016479 C260.67791415 279.23288374 263.59837093 302.2442899 263.6875 325.5625 C263.69305908 326.78445068 263.69861816 328.00640137 263.7043457 329.26538086 C263.61521836 339.96751761 263.61521836 339.96751761 261.375 343.4375 C254.57429437 347.76143272 246.01392825 349.55374082 238.37109375 351.859375 C236.98853125 352.28069081 235.60608795 352.70239797 234.22375488 353.12446594 C230.52187742 354.25281009 226.81763036 355.37318114 223.11283493 356.4919014 C220.8076973 357.18895229 218.50345637 357.8888902 216.19949341 358.58981323 C199.67340375 363.6166237 183.1282763 368.55943933 166.5 373.23828125 C165.84451738 373.42312199 165.18903477 373.60796272 164.51368904 373.79840469 C157.72929812 375.71133184 150.93989072 377.60344989 144.14038086 379.46191406 C141.95680177 380.06942168 139.77328556 380.67715539 137.58984375 381.28515625 C136.60455688 381.54782791 135.61927002 381.81049957 134.60412598 382.08113098 C128.17022812 383.88154192 128.17022812 383.88154192 123.375 388.4375 C125.7273991 390.00576607 127.76941183 391.10292568 130.3125 392.25 C134.91312442 394.52920843 137.3074426 397.24619796 139.5625 401.875 C143.49188361 414.2676714 142.26797315 429.37909322 137.16796875 441.24609375 C135.19127639 444.97851889 133.94323323 447.05867785 130.375 449.4375 C126.80660753 449.99146415 123.4791612 450.18548017 120.4375 448.125 C118.28920458 444.71300139 118.23168152 441.66892728 118.1640625 437.74609375 C118.13570313 436.63685547 118.10734375 435.52761719 118.078125 434.38476562 C118.02595833 432.04117807 117.98171227 429.69740108 117.9453125 427.35351562 C117.89890625 425.6915918 117.89890625 425.6915918 117.8515625 423.99609375 C117.83174316 422.97829834 117.81192383 421.96050293 117.79150391 420.91186523 C117.58533447 419.68705444 117.58533447 419.68705444 117.375 418.4375 C114.28572382 416.37798254 112.97692391 415.90731616 109.375 415.4375 C108.68921875 415.33695312 108.0034375 415.23640625 107.296875 415.1328125 C104.06235176 414.85776801 101.46666242 414.63995051 98.765625 416.61328125 C97.67324075 417.79294363 96.59698304 418.98761234 95.53125 420.19140625 C75.73448131 440.8130403 44.69091252 451.07897231 17.375 456.4375 C16.56337402 456.60266113 15.75174805 456.76782227 14.91552734 456.93798828 C-13.9182879 462.52898474 -46.7635906 461.38929825 -75.625 456.4375 C-76.85992187 456.22818848 -78.09484375 456.01887695 -79.3671875 455.80322266 C-109.31409591 450.64717772 -139.36171596 444.29001013 -162.80078125 423.640625 C-163.73277344 422.91359375 -164.66476563 422.1865625 -165.625 421.4375 C-168.63071856 421.82602558 -168.63071856 421.82602558 -171.625 423.4375 C-172.99506223 423.97118703 -174.37036255 424.49157805 -175.75 425 C-176.39195312 425.24878906 -177.03390625 425.49757813 -177.6953125 425.75390625 C-190.44816795 430.2716182 -204.6888593 427.3825901 -216.6953125 422.08203125 C-224.51689612 418.10730279 -231.59674119 412.9878778 -234.625 404.4375 C-235.24371554 400.02915176 -235.14717356 398.20444242 -232.625 394.5 C-229.54263358 392.38087309 -227.54969656 391.64631335 -223.79296875 391.87890625 C-220.32348944 392.77284416 -217.78395748 394.75575891 -214.91015625 396.8359375 C-208.66519233 401.21274982 -202.29519731 403.77945562 -194.625 402.4375 C-190.45653943 401.04148973 -186.75593135 399.56843135 -183.625 396.4375 C-184.13160156 395.14779297 -184.13160156 395.14779297 -184.6484375 393.83203125 C-191.31915688 376.15269695 -191.25003896 359.9065241 -188.625 341.4375 C-189.37523437 340.880625 -190.12546875 340.32375 -190.8984375 339.75 C-201.41402572 331.90966218 -211.48695446 323.80232633 -221.08837891 314.85644531 C-222.6016412 313.45906997 -224.13106731 312.08223521 -225.66796875 310.7109375 C-232.78009301 304.34516144 -239.32161652 297.60153355 -245.625 290.4375 C-246.10437012 289.89754395 -246.58374023 289.35758789 -247.07763672 288.80126953 C-265.34951425 268.1678437 -280.95401787 245.33996595 -294.625 221.4375 C-295.0257373 220.74688477 -295.42647461 220.05626953 -295.83935547 219.34472656 C-302.82264807 207.17168114 -302.82264807 207.17168114 -301.42578125 200.74609375 C-299.73340545 195.86709815 -297.77697461 191.13055164 -295.625 186.4375 C-294.965 186.4375 -294.305 186.4375 -293.625 186.4375 C-291.86273105 188.52812334 -290.20400165 190.62998536 -288.5625 192.8125 C-284.4601776 198.15578168 -280.2178644 203.26339754 -275.65625 208.2265625 C-273.85747189 210.18446329 -272.10928793 212.17266549 -270.375 214.1875 C-259.67223323 226.508631 -259.67223323 226.508631 -247.7578125 237.6171875 C-245.48854287 239.55396341 -243.32199592 241.58576967 -241.15234375 243.6328125 C-234.51414386 249.87868379 -227.58591147 255.58857316 -220.34375 261.1171875 C-218.66475261 262.40696277 -217.00242163 263.71547683 -215.34375 265.03125 C-212.14637216 267.5583971 -208.9003444 270.01252214 -205.625 272.4375 C-205.03654297 272.8799707 -204.44808594 273.32244141 -203.84179688 273.77832031 C-197.03249352 279.26365314 -197.03249352 279.26365314 -188.953125 281.375 C-187.45646165 280.9330323 -185.97187306 280.44649375 -184.5078125 279.90625 C-182.625 279.4375 -182.625 279.4375 -179.5 281.1875 C-176.99887996 283.68174883 -175.18565393 286.55728288 -173.25 289.5 C-169.96012123 294.4384981 -167.118915 296.31704158 -161.625 298.4375 C-158.655 295.4675 -155.685 292.4975 -152.625 289.4375 C-153.52476562 289.01082031 -154.42453125 288.58414062 -155.3515625 288.14453125 C-173.59267922 279.34280597 -190.7965038 269.0902005 -206.625 256.4375 C-207.61628906 255.65761719 -208.60757813 254.87773437 -209.62890625 254.07421875 C-226.73194192 240.37719303 -243.19674898 224.77215132 -256.625 207.4375 C-258.1227235 205.64392988 -259.62278925 203.85231349 -261.125 202.0625 C-262.63374521 200.19452974 -264.13341047 198.31919755 -265.625 196.4375 C-266.04410645 195.91897461 -266.46321289 195.40044922 -266.89501953 194.86621094 C-271.89172457 188.60668515 -275.8748808 183.30697838 -275.140625 174.9609375 C-274.37197314 171.19920186 -273.20957594 167.93677187 -271.625 164.4375 C-267.69966975 167.723823 -263.88956729 171.10069983 -260.14477539 174.59228516 C-222.20113738 209.95077698 -173.09199909 243.19759041 -120.625 250.4375 C-118.91804267 244.78178139 -117.23165302 239.12257992 -115.625 233.4375 C-116.25921875 233.48390625 -116.8934375 233.5303125 -117.546875 233.578125 C-139.87853634 234.44178041 -163.34835114 226.05291121 -182.71875 215.47460938 C-184.63389615 214.43265998 -186.56496103 213.42630788 -188.5 212.421875 C-203.56723779 204.44322825 -217.24954604 194.13195175 -229.625 182.4375 C-230.99497848 181.24421034 -232.36983093 180.0564883 -233.75 178.875 C-237.90579619 175.24919402 -241.7990104 171.40738744 -245.625 167.4375 C-246.45 166.633125 -247.275 165.82875 -248.125 165 C-250.65441889 160.67890939 -250.1975562 155.94727642 -249.10546875 151.16015625 C-248.86763672 150.30744141 -248.86763672 150.30744141 -248.625 149.4375 C-244.5343398 150.84781787 -241.62859389 152.81699897 -238.25 155.5 C-231.39197192 160.77934737 -224.16634418 165.20509573 -216.625 169.4375 C-215.83947754 169.87884277 -215.05395508 170.32018555 -214.24462891 170.77490234 C-183.76031426 187.71855122 -153.16415656 195.75320947 -118.625 198.4375 C-118.87407104 197.40532349 -118.87407104 197.40532349 -119.12817383 196.35229492 C-121.0363692 188.39717868 -122.8547373 180.42437662 -124.625 172.4375 C-124.91141357 171.18404785 -124.91141357 171.18404785 -125.20361328 169.90527344 C-127.71979749 158.58622256 -127.93014764 147.2362725 -128 135.6875 C-128.01205475 134.57485275 -128.01205475 134.57485275 -128.02435303 133.43972778 C-128.17654092 114.92686509 -124.65007175 96.81633392 -115.625 80.4375 C-116.82125 80.06625 -118.0175 79.695 -119.25 79.3125 C-123.57512435 77.86620045 -127.79618717 76.20172667 -132 74.4375 C-133.18335938 73.9425 -134.36671875 73.4475 -135.5859375 72.9375 C-140.26599722 70.62754764 -140.26599722 70.62754764 -141.625 68.4375 C-142.30347979 62.72288155 -140.88093889 58.58606008 -138.5625 53.5 C-138.24958008 52.7999585 -137.93666016 52.09991699 -137.61425781 51.37866211 C-135.12672276 46.04139597 -132.25482436 41.20782726 -127.625 37.4375 C-118.61450802 34.43400267 -110.00383017 37.97317599 -101.625 41.4375 C-98.43786064 43.22816909 -95.49435406 45.17467606 -92.625 47.4375 C-89.4514583 46.03016444 -87.30547402 44.33704895 -84.8125 41.9375 C-73.37600261 31.62222785 -59.06888435 22.80233292 -44.38671875 17.99609375 C-37.14041085 15.93518394 -37.14041085 15.93518394 -32.1640625 10.76171875 C-31.37857978 7.86213093 -31.37857978 7.86213093 -31.14453125 5.0234375 C-30.47842212 1.70791685 -29.22318386 0.53694655 -26.625 -1.5625 C-17.77842209 -4.5113593 -8.60217073 -2.80741495 0 0 Z " fill="#6FC7EA" transform="translate(308.625,6.5625)"/>
<path d="M0 0 C9.46645179 3.00138365 17.92259347 2.42299079 27.71044922 1.625 C71.23833293 -1.43798467 119.70809964 7.07584882 153.5625 36.1328125 C161.41985 43.07444233 169.48713215 50.72797025 175.375 59.4375 C175.375 60.0975 175.375 60.7575 175.375 61.4375 C176.035 61.1075 176.695 60.7775 177.375 60.4375 C189.6656648 59.20843352 198.72088118 63.41050405 208.17578125 70.85546875 C213.01295741 75.18112743 216.02175406 80.54995161 219.09179688 86.19506836 C221.36219107 90.24838367 223.27047538 92.3097364 227.375 94.4375 C230.47095575 99.08143362 231.41555558 103.92194045 231.375 109.4375 C230.4375 112.5 230.4375 112.5 229.375 114.4375 C228.715 114.4375 228.055 114.4375 227.375 114.4375 C227.41427612 115.43378418 227.41427612 115.43378418 227.4543457 116.45019531 C228.2442223 139.51059246 228.2442223 139.51059246 223.46875 148.265625 C222.07514538 150.62763661 222.07514538 150.62763661 222.375 154.4375 C223.99626675 156.47447617 225.66359531 158.47564584 227.375 160.4375 C229.24545345 166.04886035 229.29485398 172.13879437 226.9375 177.625 C223.97474086 182.88737363 218.72171584 186.76414208 213.375 189.4375 C212.90772148 191.27278863 212.90772148 191.27278863 212.7421875 193.47265625 C212.65839844 194.28154297 212.57460938 195.09042969 212.48828125 195.92382812 C212.37033203 197.1990332 212.37033203 197.1990332 212.25 198.5 C212.16363281 199.35400391 212.07726562 200.20800781 211.98828125 201.08789062 C211.77552772 203.20360633 211.57420047 205.32046524 211.375 207.4375 C211.97860352 207.34662109 212.58220703 207.25574219 213.20410156 207.16210938 C239.95754375 203.18428152 239.95754375 203.18428152 245.375 204.4375 C248.27358448 207.27035694 248.87532182 210.03917345 249.625 213.9375 C250.53680403 217.89224912 250.53680403 217.89224912 253.05078125 220.90234375 C254.79793387 221.80304976 256.58553033 222.6241047 258.375 223.4375 C261.0274593 226.7819052 260.80294993 230.3006507 260.375 234.4375 C258.4375 237.75 258.4375 237.75 256.375 240.4375 C254.8328393 243.5218214 255.75711924 246.0374945 256.265625 249.41796875 C256.48174336 250.89116289 256.69763493 252.36439032 256.91333008 253.83764648 C257.02963776 254.61727753 257.14594543 255.39690857 257.26577759 256.20016479 C260.67791415 279.23288374 263.59837093 302.2442899 263.6875 325.5625 C263.69305908 326.78445068 263.69861816 328.00640137 263.7043457 329.26538086 C263.61521836 339.96751761 263.61521836 339.96751761 261.375 343.4375 C254.57429437 347.76143272 246.01392825 349.55374082 238.37109375 351.859375 C236.98853125 352.28069081 235.60608795 352.70239797 234.22375488 353.12446594 C230.52187742 354.25281009 226.81763036 355.37318114 223.11283493 356.4919014 C220.8076973 357.18895229 218.50345637 357.8888902 216.19949341 358.58981323 C199.67340375 363.6166237 183.1282763 368.55943933 166.5 373.23828125 C165.84451738 373.42312199 165.18903477 373.60796272 164.51368904 373.79840469 C157.72929812 375.71133184 150.93989072 377.60344989 144.14038086 379.46191406 C141.95680177 380.06942168 139.77328556 380.67715539 137.58984375 381.28515625 C136.60455688 381.54782791 135.61927002 381.81049957 134.60412598 382.08113098 C128.17022812 383.88154192 128.17022812 383.88154192 123.375 388.4375 C125.7273991 390.00576607 127.76941183 391.10292568 130.3125 392.25 C134.91312442 394.52920843 137.3074426 397.24619796 139.5625 401.875 C143.49188361 414.2676714 142.26797315 429.37909322 137.16796875 441.24609375 C135.19127639 444.97851889 133.94323323 447.05867785 130.375 449.4375 C126.80660753 449.99146415 123.4791612 450.18548017 120.4375 448.125 C118.28920458 444.71300139 118.23168152 441.66892728 118.1640625 437.74609375 C118.13570313 436.63685547 118.10734375 435.52761719 118.078125 434.38476562 C118.02595833 432.04117807 117.98171227 429.69740108 117.9453125 427.35351562 C117.89890625 425.6915918 117.89890625 425.6915918 117.8515625 423.99609375 C117.83174316 422.97829834 117.81192383 421.96050293 117.79150391 420.91186523 C117.58533447 419.68705444 117.58533447 419.68705444 117.375 418.4375 C114.28572382 416.37798254 112.97692391 415.90731616 109.375 415.4375 C108.68921875 415.33695312 108.0034375 415.23640625 107.296875 415.1328125 C104.06235176 414.85776801 101.46666242 414.63995051 98.765625 416.61328125 C97.67324075 417.79294363 96.59698304 418.98761234 95.53125 420.19140625 C75.73448131 440.8130403 44.69091252 451.07897231 17.375 456.4375 C16.56337402 456.60266113 15.75174805 456.76782227 14.91552734 456.93798828 C-13.9182879 462.52898474 -46.7635906 461.38929825 -75.625 456.4375 C-76.85992187 456.22818848 -78.09484375 456.01887695 -79.3671875 455.80322266 C-109.31409591 450.64717772 -139.36171596 444.29001013 -162.80078125 423.640625 C-163.73277344 422.91359375 -164.66476563 422.1865625 -165.625 421.4375 C-168.63071856 421.82602558 -168.63071856 421.82602558 -171.625 423.4375 C-172.99506223 423.97118703 -174.37036255 424.49157805 -175.75 425 C-176.39195312 425.24878906 -177.03390625 425.49757813 -177.6953125 425.75390625 C-190.44816795 430.2716182 -204.6888593 427.3825901 -216.6953125 422.08203125 C-224.51689612 418.10730279 -231.59674119 412.9878778 -234.625 404.4375 C-235.24371554 400.02915176 -235.14717356 398.20444242 -232.625 394.5 C-229.54263358 392.38087309 -227.54969656 391.64631335 -223.79296875 391.87890625 C-220.32348944 392.77284416 -217.78395748 394.75575891 -214.91015625 396.8359375 C-208.66519233 401.21274982 -202.29519731 403.77945562 -194.625 402.4375 C-190.45653943 401.04148973 -186.75593135 399.56843135 -183.625 396.4375 C-184.13160156 395.14779297 -184.13160156 395.14779297 -184.6484375 393.83203125 C-191.31915688 376.15269695 -191.25003896 359.9065241 -188.625 341.4375 C-189.37523437 340.880625 -190.12546875 340.32375 -190.8984375 339.75 C-201.41402572 331.90966218 -211.48695446 323.80232633 -221.08837891 314.85644531 C-222.6016412 313.45906997 -224.13106731 312.08223521 -225.66796875 310.7109375 C-232.78009301 304.34516144 -239.32161652 297.60153355 -245.625 290.4375 C-246.10437012 289.89754395 -246.58374023 289.35758789 -247.07763672 288.80126953 C-265.34951425 268.1678437 -280.95401787 245.33996595 -294.625 221.4375 C-295.0257373 220.74688477 -295.42647461 220.05626953 -295.83935547 219.34472656 C-302.82264807 207.17168114 -302.82264807 207.17168114 -301.42578125 200.74609375 C-299.73340545 195.86709815 -297.77697461 191.13055164 -295.625 186.4375 C-294.965 186.4375 -294.305 186.4375 -293.625 186.4375 C-291.86273105 188.52812334 -290.20400165 190.62998536 -288.5625 192.8125 C-284.4601776 198.15578168 -280.2178644 203.26339754 -275.65625 208.2265625 C-273.85747189 210.18446329 -272.10928793 212.17266549 -270.375 214.1875 C-259.67223323 226.508631 -259.67223323 226.508631 -247.7578125 237.6171875 C-245.48854287 239.55396341 -243.32199592 241.58576967 -241.15234375 243.6328125 C-234.51414386 249.87868379 -227.58591147 255.58857316 -220.34375 261.1171875 C-218.66475261 262.40696277 -217.00242163 263.71547683 -215.34375 265.03125 C-212.14637216 267.5583971 -208.9003444 270.01252214 -205.625 272.4375 C-205.03654297 272.8799707 -204.44808594 273.32244141 -203.84179688 273.77832031 C-197.03249352 279.26365314 -197.03249352 279.26365314 -188.953125 281.375 C-187.45646165 280.9330323 -185.97187306 280.44649375 -184.5078125 279.90625 C-182.625 279.4375 -182.625 279.4375 -179.5 281.1875 C-176.99887996 283.68174883 -175.18565393 286.55728288 -173.25 289.5 C-169.96012123 294.4384981 -167.118915 296.31704158 -161.625 298.4375 C-158.655 295.4675 -155.685 292.4975 -152.625 289.4375 C-153.52476562 289.01082031 -154.42453125 288.58414062 -155.3515625 288.14453125 C-173.59267922 279.34280597 -190.7965038 269.0902005 -206.625 256.4375 C-207.61628906 255.65761719 -208.60757813 254.87773437 -209.62890625 254.07421875 C-226.73194192 240.37719303 -243.19674898 224.77215132 -256.625 207.4375 C-258.1227235 205.64392988 -259.62278925 203.85231349 -261.125 202.0625 C-262.63374521 200.19452974 -264.13341047 198.31919755 -265.625 196.4375 C-266.04410645 195.91897461 -266.46321289 195.40044922 -266.89501953 194.86621094 C-271.89172457 188.60668515 -275.8748808 183.30697838 -275.140625 174.9609375 C-274.37197314 171.19920186 -273.20957594 167.93677187 -271.625 164.4375 C-267.69966975 167.723823 -263.88956729 171.10069983 -260.14477539 174.59228516 C-222.20113738 209.95077698 -173.09199909 243.19759041 -120.625 250.4375 C-118.91804267 244.78178139 -117.23165302 239.12257992 -115.625 233.4375 C-116.25921875 233.48390625 -116.8934375 233.5303125 -117.546875 233.578125 C-139.87853634 234.44178041 -163.34835114 226.05291121 -182.71875 215.47460938 C-184.63389615 214.43265998 -186.56496103 213.42630788 -188.5 212.421875 C-203.56723779 204.44322825 -217.24954604 194.13195175 -229.625 182.4375 C-230.99497848 181.24421034 -232.36983093 180.0564883 -233.75 178.875 C-237.90579619 175.24919402 -241.7990104 171.40738744 -245.625 167.4375 C-246.45 166.633125 -247.275 165.82875 -248.125 165 C-250.65441889 160.67890939 -250.1975562 155.94727642 -249.10546875 151.16015625 C-248.86763672 150.30744141 -248.86763672 150.30744141 -248.625 149.4375 C-244.5343398 150.84781787 -241.62859389 152.81699897 -238.25 155.5 C-231.39197192 160.77934737 -224.16634418 165.20509573 -216.625 169.4375 C-215.83947754 169.87884277 -215.05395508 170.32018555 -214.24462891 170.77490234 C-183.76031426 187.71855122 -153.16415656 195.75320947 -118.625 198.4375 C-118.87407104 197.40532349 -118.87407104 197.40532349 -119.12817383 196.35229492 C-121.0363692 188.39717868 -122.8547373 180.42437662 -124.625 172.4375 C-124.91141357 171.18404785 -124.91141357 171.18404785 -125.20361328 169.90527344 C-127.71979749 158.58622256 -127.93014764 147.2362725 -128 135.6875 C-128.01205475 134.57485275 -128.01205475 134.57485275 -128.02435303 133.43972778 C-128.17654092 114.92686509 -124.65007175 96.81633392 -115.625 80.4375 C-116.82125 80.06625 -118.0175 79.695 -119.25 79.3125 C-123.57512435 77.86620045 -127.79618717 76.20172667 -132 74.4375 C-133.18335938 73.9425 -134.36671875 73.4475 -135.5859375 72.9375 C-140.26599722 70.62754764 -140.26599722 70.62754764 -141.625 68.4375 C-142.30347979 62.72288155 -140.88093889 58.58606008 -138.5625 53.5 C-138.24958008 52.7999585 -137.93666016 52.09991699 -137.61425781 51.37866211 C-135.12672276 46.04139597 -132.25482436 41.20782726 -127.625 37.4375 C-118.61450802 34.43400267 -110.00383017 37.97317599 -101.625 41.4375 C-98.43786064 43.22816909 -95.49435406 45.17467606 -92.625 47.4375 C-89.4514583 46.03016444 -87.30547402 44.33704895 -84.8125 41.9375 C-73.37600261 31.62222785 -59.06888435 22.80233292 -44.38671875 17.99609375 C-37.14041085 15.93518394 -37.14041085 15.93518394 -32.1640625 10.76171875 C-31.37857978 7.86213093 -31.37857978 7.86213093 -31.14453125 5.0234375 C-30.47842212 1.70791685 -29.22318386 0.53694655 -26.625 -1.5625 C-17.77842209 -4.5113593 -8.60217073 -2.80741495 0 0 Z M-5.625 9.4375 C-6.43001953 9.6029834 -7.23503906 9.7684668 -8.06445312 9.93896484 C-34.23510501 15.32800966 -60.34240057 25.64896343 -80.625 43.4375 C-81.80255859 44.45263672 -81.80255859 44.45263672 -83.00390625 45.48828125 C-84.88983604 47.12494032 -86.76329487 48.77340603 -88.625 50.4375 C-87.635 52.9125 -87.635 52.9125 -86.625 55.4375 C-90.5085279 53.28916542 -94.18698371 51.06035548 -97.8125 48.5 C-105.48203394 43.38263694 -113.804552 39.26543738 -123.2265625 39.859375 C-126.68737903 40.69357833 -128.17576393 41.94298536 -130.20703125 44.83203125 C-132.13251965 48.37004987 -133.89318975 51.95945226 -135.5625 55.625 C-135.88186523 56.32625 -136.20123047 57.0275 -136.53027344 57.75 C-138.08689756 61.39664912 -139.0475455 63.67689479 -137.625 67.4375 C-131.27019648 71.94385306 -123.19745062 74.47302739 -115.9375 77.1875 C-115.15455566 77.48116455 -114.37161133 77.7748291 -113.56494141 78.07739258 C-108.30885046 79.98513849 -103.10483529 81.32295723 -97.625 82.4375 C-97.625 83.4275 -97.625 84.4175 -97.625 85.4375 C-102.245 84.1175 -106.865 82.7975 -111.625 81.4375 C-116.52496369 90.67204695 -120.23316644 99.19708695 -122.625 109.4375 C-122.85058594 110.32953125 -123.07617188 111.2215625 -123.30859375 112.140625 C-129.39134653 140.83443811 -121.83217411 172.94701499 -114.78710938 200.7434082 C-112.98137459 207.99813087 -112.07609611 214.77389496 -112.125 222.25 C-112.13072021 223.28680908 -112.13644043 224.32361816 -112.14233398 225.3918457 C-112.58299041 244.51811502 -121.08607084 260.25656822 -133.625 274.4375 C-134.30046875 275.22253906 -134.9759375 276.00757813 -135.671875 276.81640625 C-140.27226477 282.0653472 -145.16033261 286.97591525 -150.125 291.875 C-156.06675268 297.75586805 -161.52571406 303.80064311 -166.625 310.4375 C-167.38296875 311.37851562 -168.1409375 312.31953125 -168.921875 313.2890625 C-183.63894233 332.00640651 -188.62506941 351.29045937 -186.3046875 374.6640625 C-185.22378559 381.4835709 -182.95528413 387.95569026 -180.625 394.4375 C-177.52478679 392.91389094 -174.57337771 391.23928638 -171.625 389.4375 C-177.5256628 396.70269107 -183.36256645 402.93721119 -192.625 405.4375 C-202.40646832 406.41337735 -209.00632533 405.48952184 -216.89453125 399.80078125 C-221.52127569 396.34380363 -221.52127569 396.34380363 -227.0625 395.375 C-229.92363959 396.28297289 -229.92363959 396.28297289 -231.625 399.4375 C-231.3072185 405.31645773 -227.71662379 409.61484825 -223.5625 413.5 C-214.0590763 421.22405927 -200.57456651 425.18817007 -188.4140625 424.78515625 C-179.2344433 423.640918 -169.40010849 419.89846418 -163.18359375 412.7890625 C-161.69401622 410.6610946 -160.625 409.08256786 -160.625 406.4375 C-159.965 407.0975 -159.305 407.7575 -158.625 408.4375 C-159.63411458 410.16276042 -160.64322917 411.88802083 -161.65234375 413.61328125 C-162.76401247 415.57569555 -162.76401247 415.57569555 -163.625 418.4375 C-135.4263104 442.63409173 -101.46230779 449.08279554 -65.625 454.4375 C-64.86461426 454.55754395 -64.10422852 454.67758789 -63.32080078 454.80126953 C-15.96483925 462.08763738 40.55458228 455.66314903 80.375 427.4375 C81.3753125 426.73367188 82.375625 426.02984375 83.40625 425.3046875 C98.15440094 414.45835319 109.85437553 401.34661587 120.375 386.4375 C116.43650899 385.12466966 113.91300815 386.32671769 110.125 387.5625 C102.96114738 389.77615172 95.75608751 391.6203502 88.4375 393.25 C87.49165039 393.46865723 86.54580078 393.68731445 85.57128906 393.91259766 C72.43476615 396.77426923 72.43476615 396.77426923 67.375 395.4375 C64.85255319 393.16084393 63.68057986 390.53762206 62.375 387.4375 C62.03082031 386.65503906 61.68664062 385.87257813 61.33203125 385.06640625 C60.27887237 382.54447408 59.31644268 380.00313268 58.375 377.4375 C58.03033691 376.51469238 57.68567383 375.59188477 57.33056641 374.64111328 C54.8934276 368.04038618 52.67269443 361.40122424 50.65893555 354.66015625 C49.82618066 351.89090808 48.95808695 349.13737552 48.05249023 346.39111328 C43.7339344 333.22857845 40.35001501 319.88911084 37.0625 306.4375 C36.25861115 303.17183704 35.45300398 299.90660443 34.6464386 296.64160156 C34.15035662 294.63100936 33.65612265 292.61996004 33.16398621 290.60839844 C32.94317886 289.70895508 32.72237152 288.80951172 32.49487305 287.8828125 C32.30201218 287.09406738 32.10915131 286.30532227 31.91044617 285.49267578 C31.46644595 283.78849232 30.93190012 282.10820037 30.375 280.4375 C29.62476563 280.36273438 28.87453125 280.28796875 28.1015625 280.2109375 C19.14520896 279.06037319 12.04108675 276.57359787 5.9375 269.6875 C3.87752617 265.40275444 2.5728926 261.02942164 1.375 256.4375 C2.365 256.4375 3.355 256.4375 4.375 256.4375 C4.47296875 257.01757812 4.5709375 257.59765625 4.671875 258.1953125 C5.82061132 264.1964695 7.11225075 269.07888608 12.3203125 272.84375 C21.338228 278.24821504 31.40377564 280.03233199 41.6875 277.6796875 C48.6622916 275.66650902 54.19662621 273.61587379 59.375 268.4375 C59.70833333 265.9375 59.70833333 265.9375 59.375 263.4375 C57.48840125 261.13087401 57.48840125 261.13087401 54.375 261.125 C51.2317037 261.19629126 48.6559156 261.9289079 45.6875 262.9375 C39.38299338 264.9364899 32.5006225 266.01194251 26.1640625 263.59375 C21.31120478 260.56327345 19.92185317 256.80599041 18.375 251.4375 C19.365 251.7675 20.355 252.0975 21.375 252.4375 C23.0625 256 23.0625 256 24.375 259.4375 C25.035 259.4375 25.695 259.4375 26.375 259.4375 C26.3440625 258.07625 26.3440625 258.07625 26.3125 256.6875 C27.375 253.4375 27.375 253.4375 29.04321289 252.36376953 C35.20318482 249.76784544 41.42718752 247.81377029 47.875 246.0625 C48.95797363 245.76359863 50.04094727 245.46469727 51.15673828 245.15673828 C59.87358714 242.77964466 68.63822772 240.63076509 77.43334961 238.56469727 C83.46723322 237.14659994 89.45861549 235.63278506 95.4375 234 C108.62243357 230.44147167 122.02039307 227.72488901 135.37078857 224.86712646 C138.52003687 224.19204778 141.66815526 223.51174332 144.81640625 222.83203125 C159.65549987 219.63402947 174.51025493 216.51390328 189.375 213.4375 C189.375 207.8275 189.375 202.2175 189.375 196.4375 C187.56 196.375625 185.745 196.31375 183.875 196.25 C177.92320125 195.7446586 173.83016717 194.46325347 169.375 190.4375 C165.40949966 185.35352521 163.93586915 181.20046056 164.0390625 174.84375 C164.89500803 168.71279129 168.73286238 164.69502368 173.5 161.0625 C174.7802168 160.17083149 176.07104181 159.29407505 177.375 158.4375 C178.86 157.4475 178.86 157.4475 180.375 156.4375 C180.375 154.4686105 180.36885631 152.49909355 180.3046875 150.53125 C180.41656021 147.19992918 181.5164265 145.1634078 183.375 142.4375 C188.174411 138.22338302 193.24321195 137.35848002 199.375 136.4375 C198.57356589 101.24725687 180.72811862 67.55111999 156.18945312 43.16992188 C137.20268306 25.04154185 112.45797047 14.11718003 86.875 9.1875 C86.09463379 9.03659912 85.31426758 8.88569824 84.51025391 8.73022461 C69.51568529 6.04126125 54.52721413 5.02858317 39.3125 5.0625 C38.46870789 5.06237915 37.62491577 5.0622583 36.7555542 5.06213379 C22.31448217 5.09140048 8.51035789 6.35043688 -5.625 9.4375 Z " fill="#1E1F1F" transform="translate(308.625,6.5625)"/>
<path d="M0 0 C14.94294688 12.46719237 24.34029526 33.20229162 26.23828125 52.41162109 C27.23711792 69.8092156 24.45611626 87.30898087 12.83203125 100.984375 C12.22746094 101.64953125 11.62289062 102.3146875 11 103 C10.10861328 104.02867187 10.10861328 104.02867187 9.19921875 105.078125 C-3.05951333 118.37745338 -21.67286251 124.4596532 -39.375 125.21875 C-61.70124292 125.82787739 -82.32274906 121.43033405 -99.20703125 105.98046875 C-112.18468571 92.60579236 -115.50006799 75.34413113 -115.35400391 57.35107422 C-114.83273571 38.10112023 -107.68537397 19.52132691 -93.57421875 6.12890625 C-85.39335601 -0.63675413 -76.00176229 -5.53482251 -66 -9 C-64.65035156 -9.47953125 -64.65035156 -9.47953125 -63.2734375 -9.96875 C-42.2558112 -16.08708865 -17.45347156 -13.5814409 0 0 Z " fill="#FDFDFD" transform="translate(432,86)"/>
<path d="M0 0 C-1.20729679 3.26093147 -2.50828161 5.96937241 -4.58203125 8.7578125 C-5.35172241 9.80509521 -5.35172241 9.80509521 -6.13696289 10.87353516 C-6.68989014 11.61651855 -7.24281738 12.35950195 -7.8125 13.125 C-12.52505167 19.54312806 -17.10536483 26.02706271 -21.5625 32.625 C-26.10247255 39.324361 -30.80587356 45.86023437 -35.70043945 52.30444336 C-38.79544598 56.38068159 -41.80357832 60.50290529 -44.75 64.6875 C-50.99560697 73.50497945 -57.50729139 82.1228595 -64.15673828 90.63916016 C-65.2949215 92.09693919 -66.4273506 93.55925724 -67.55029297 95.02880859 C-68.81418699 96.66923864 -70.12370267 98.27425785 -71.4375 99.875 C-72.11683594 100.71804688 -72.79617188 101.56109375 -73.49609375 102.4296875 C-76.79216426 104.49680192 -78.68973445 104.2373282 -82.45336914 103.60986328 C-87.28204226 102.45349999 -91.86698205 100.7716043 -96.5 99 C-97.64218994 98.56993652 -98.78437988 98.13987305 -99.96118164 97.69677734 C-127.28449689 87.2710343 -154.16970902 75.62543576 -181 64 C-180.91766113 63.3800415 -180.83532227 62.76008301 -180.75048828 62.12133789 C-180.64978027 61.30914795 -180.54907227 60.49695801 -180.4453125 59.66015625 C-180.34234863 58.85457275 -180.23938477 58.04898926 -180.13330078 57.21899414 C-179.85321379 54.90013844 -179.85321379 54.90013844 -180.875 52.4375 C-184.35823862 50.08119152 -187.92932848 50.50955765 -192 51 C-194.0078864 51.64252365 -196.00882592 52.30741771 -198 53 C-203.61938817 53.51085347 -207.05750028 52.42081619 -212 50 C-212 48.68 -212 47.36 -212 46 C-204.68545063 43.2356415 -197.34954065 40.82856186 -189.8125 38.75 C-188.7507959 38.45552979 -187.6890918 38.16105957 -186.59521484 37.85766602 C-164.77292265 31.86947843 -142.78364871 26.60766022 -120.67236328 21.80371094 C-116.66275789 20.92619326 -112.65720944 20.03165798 -108.65234375 19.1328125 C-99.43976732 17.06629859 -90.22205212 15.02380668 -81 13 C-80.2069043 12.82579529 -79.41380859 12.65159058 -78.59667969 12.47210693 C-61.08548931 8.63156839 -43.56586328 4.92221834 -25.875 2 C-24.64354248 1.79221924 -23.41208496 1.58443848 -22.14331055 1.37036133 C-14.70161107 0.19302398 -7.5308763 -0.24776015 0 0 Z " fill="#EEEEEE" transform="translate(550,215)"/>
<path d="M0 0 C4.01351367 0.57464178 6.68374006 1.80729078 10.078125 4 C11.06167969 4.63131836 12.04523438 5.26263672 13.05859375 5.91308594 C14.11175781 6.60176758 15.16492188 7.29044922 16.25 8 C17.34957031 8.71188477 18.44914063 9.42376953 19.58203125 10.15722656 C31.52090949 17.90763164 43.28400328 25.91758475 55 34 C56.35762451 34.93078369 56.35762451 34.93078369 57.74267578 35.88037109 C60.18802504 37.55842613 62.62661826 39.24574151 65.0625 40.9375 C65.77728516 41.42766602 66.49207031 41.91783203 67.22851562 42.42285156 C68.85607748 43.56411966 70.43462287 44.77482863 72 46 C72 46.66 72 47.32 72 48 C67.61382226 49.37456594 63.22636363 50.74498652 58.83837891 52.11376953 C56.81955971 52.74410788 54.80103593 53.37539276 52.78271484 54.00732422 C39.61182547 58.12985164 26.43572527 62.21748877 13.17626953 66.04760742 C1.26369493 69.49003553 -10.62288257 73.02038921 -22.51199341 76.54284668 C-44.8301182 83.1546624 -67.19605438 89.54680331 -89.75 95.3125 C-90.72501465 95.56692871 -91.7000293 95.82135742 -92.70458984 96.08349609 C-98.7945443 97.62037002 -104.73353665 98.56544552 -111 99 C-107.98315405 93.44958925 -104.52738764 88.43278593 -100.75 83.375 C-100.1415625 82.55451172 -99.533125 81.73402344 -98.90625 80.88867188 C-93.65687438 73.83082233 -88.32171784 66.83885627 -82.97485352 59.85473633 C-78.47836149 53.97202994 -74.06045235 48.03747883 -69.6875 42.0625 C-62.41587885 32.1354597 -54.90758746 22.42990377 -47 13 C-41.37129362 13.89290724 -36.10720134 15.98188475 -30.76953125 17.91601562 C-26.0639169 19.5491406 -22.04370688 20.66348397 -17 20 C-14.53022686 18.48520615 -14.53022686 18.48520615 -12.5625 16.1875 C-11.81226563 15.37796875 -11.06203125 14.5684375 -10.2890625 13.734375 C-6.60467809 9.33323321 -3.24568586 4.73144941 0 0 Z " fill="#EEEEEE" transform="translate(492,301)"/>
<path d="M0 0 C3.26866961 1.46979332 6.55070303 2.90913865 9.83233643 4.34970093 C10.54191498 4.66174973 11.25149353 4.97379852 11.98257446 5.29530334 C21.71544621 9.55773362 31.54321187 13.59493336 41.36358643 17.65048218 C42.29169128 18.0341394 43.21979614 18.41779663 44.17602539 18.81307983 C49.44554234 20.99129791 54.71640137 23.16623032 59.98858643 25.33798218 C58.29913819 28.85324458 56.27533215 31.6974406 53.86358643 34.77548218 C52.9593724 35.9378008 52.05577033 37.10059564 51.15264893 38.26376343 C50.65152588 38.90781128 50.15040283 39.55185913 49.63409424 40.21542358 C39.47445342 53.32045582 29.53127858 66.58362985 19.73272705 79.96005249 C17.92098255 82.43015207 16.10403683 84.89634548 14.28546143 87.36141968 C13.6749292 88.18907837 13.06439697 89.01673706 12.43536377 89.86947632 C11.23832313 91.49146478 10.04074816 93.11305905 8.84259033 94.73422241 C6.33639905 98.12974209 3.8400121 101.52934022 1.40264893 104.97470093 C0.6885083 105.98145874 -0.02563232 106.98821655 -0.76141357 108.02548218 C-1.35438232 108.87497437 -1.94735107 109.72446655 -2.55828857 110.59970093 C-3.03781982 111.17333374 -3.51735107 111.74696655 -4.01141357 112.33798218 C-4.67141357 112.33798218 -5.33141357 112.33798218 -6.01141357 112.33798218 C-10.86073096 103.68420582 -13.83065173 94.53759534 -16.88641357 85.15048218 C-17.41884725 83.53100494 -17.95156468 81.91162098 -18.48455811 80.29232788 C-24.98982117 60.46816698 -30.95664066 40.58502283 -36.01141357 20.33798218 C-36.2826001 19.26507935 -36.2826001 19.26507935 -36.55926514 18.17050171 C-38.00431478 12.42334105 -39.16875898 7.29088332 -39.01141357 1.33798218 C-38.24957764 1.16782593 -37.4877417 0.99766968 -36.70281982 0.82235718 C-30.81630908 -0.55924584 -25.55203897 -2.06478706 -20.24188232 -4.99014282 C-13.22896871 -7.10261417 -6.2475901 -2.81165825 0 0 Z " fill="#EEEEEE" transform="translate(382.01141357421875,286.6620178222656)"/>
<path d="M0 0 C3.92533025 3.286323 7.73543271 6.66319983 11.48022461 10.15478516 C50.2714316 46.30310006 97.33183177 75.86108305 150 86 C148.28580248 98.12794747 135.26245495 110.11416329 126.7265625 118.24609375 C124.95031204 120.05047487 123.47315821 121.94390495 122 124 C117.00949801 123.44720593 113.02939379 121.79157089 108.625 119.5 C107.92874512 119.14252686 107.23249023 118.78505371 106.51513672 118.41674805 C104.33708868 117.28952125 102.16798018 116.14645231 100 115 C99.33613281 114.65404785 98.67226562 114.3080957 97.98828125 113.95166016 C81.54683254 105.33302649 66.89129094 94.2547827 53 82 C52.22398438 81.33484375 51.44796875 80.6696875 50.6484375 79.984375 C37.78172192 68.75363357 25.43590234 56.52802155 15 43 C13.50253363 41.2062152 12.00245245 39.4146106 10.5 37.625 C8.99125479 35.75702974 7.49158953 33.88169755 6 32 C5.37134033 31.22221191 5.37134033 31.22221191 4.72998047 30.42871094 C-0.26672457 24.16918515 -4.2498808 18.86947838 -3.515625 10.5234375 C-2.74697314 6.76170186 -1.58457594 3.49927187 0 0 Z " fill="#515150" transform="translate(37,171)"/>
<path d="M0 0 C1.97892529 2.96838794 2.49811392 4.60187089 3.18359375 8.0234375 C3.38726563 9.03212891 3.5909375 10.04082031 3.80078125 11.08007812 C4.01089844 12.16740234 4.22101562 13.25472656 4.4375 14.375 C4.65921875 15.51130859 4.8809375 16.64761719 5.109375 17.81835938 C6.87641078 27.04104613 8.36531778 36.25716657 9.54931641 45.57128906 C9.8874904 48.14404939 10.24147395 50.71197884 10.61083984 53.28027344 C14.2545449 78.66100354 15.69428716 103.36691805 15 129 C12.34562229 127.72773181 9.92210351 126.34574106 7.5078125 124.6640625 C6.47333984 123.94851196 6.47333984 123.94851196 5.41796875 123.21850586 C4.66128906 122.69264893 3.90460937 122.16679199 3.125 121.625 C-5.53555044 115.65710281 -14.25159037 109.77551351 -23 103.9375 C-23.96546753 103.29322052 -23.96546753 103.29322052 -24.95043945 102.63592529 C-35.52705008 95.58562712 -46.19454427 88.69557207 -57 82 C-56.38640287 78.72884856 -55.26276617 76.69361985 -53.26171875 74.05078125 C-52.69509521 73.294021 -52.12847168 72.53726074 -51.54467773 71.75756836 C-50.93180908 70.9506958 -50.31894043 70.14382324 -49.6875 69.3125 C-48.39962197 67.59220776 -47.113189 65.87083285 -45.828125 64.1484375 C-45.18166016 63.2831543 -44.53519531 62.41787109 -43.86914062 61.52636719 C-41.16521753 57.87169161 -38.5445013 54.161662 -35.9375 50.4375 C-31.82187389 44.56607476 -27.65119651 38.73893922 -23.4375 32.9375 C-18.75308613 26.48368256 -14.18863175 19.95921142 -9.69580078 13.37084961 C-6.58370798 8.81680884 -3.3682658 4.36964212 0 0 Z " fill="#EEEEEE" transform="translate(553,217)"/>
<path d="M0 0 C0.66 0 1.32 0 2 0 C3.76226895 2.09062334 5.42099835 4.19248536 7.0625 6.375 C11.1648224 11.71828168 15.4071356 16.82589754 19.96875 21.7890625 C21.76752811 23.74696329 23.51571207 25.73516549 25.25 27.75 C35.94936462 40.06451453 35.94936462 40.06451453 47.85546875 51.171875 C51.28462662 54.09509155 54.5451177 57.20332225 57.81835938 60.29931641 C63.02419338 65.16127579 68.43896321 69.45006081 74 74 C71.36 89.18 68.72 104.36 66 120 C58.15625 113.27678571 58.15625 113.27678571 55.625 110.25 C53.06045434 107.22953512 50.43485353 104.28916487 47.75 101.375 C29.71655793 81.35482279 14.33088993 58.62909059 1.20703125 35.15185547 C0.45285617 33.80733703 -0.30893584 32.4670299 -1.08203125 31.13330078 C-7.04978231 20.83536382 -7.04978231 20.83536382 -5.765625 14.37890625 C-4.1773243 9.44382906 -2.15927494 4.70897228 0 0 Z " fill="#424242" transform="translate(13,193)"/>
<path d="M0 0 C3.92533025 3.286323 7.73543271 6.66319983 11.48022461 10.15478516 C29.32382238 26.78267692 48.3922958 41.16068526 69.21679688 53.89355469 C70.83223299 54.8959036 72.41815505 55.9454367 74 57 C74.26464844 59.82226562 74.26464844 59.82226562 74.109375 63.40625 C74.05910156 64.70820313 74.00882812 66.01015625 73.95703125 67.3515625 C73.888119 68.7343799 73.81910794 70.11719237 73.75 71.5 C73.6952791 72.85150909 73.6418793 74.20307236 73.58984375 75.5546875 C73.28669227 82.73162243 72.83571567 89.86460018 72 97 C51.02622887 81.48628818 31.02043861 63.68092984 15 43 C13.5022765 41.20642988 12.00221075 39.41481349 10.5 37.625 C8.99125479 35.75702974 7.49158953 33.88169755 6 32 C5.37134033 31.22221191 5.37134033 31.22221191 4.72998047 30.42871094 C-0.26672457 24.16918515 -4.2498808 18.86947838 -3.515625 10.5234375 C-2.74697314 6.76170186 -1.58457594 3.49927187 0 0 Z " fill="#464645" transform="translate(37,171)"/>
<path d="M0 0 C0.99 0.99 0.99 0.99 2 2 C1.11368896 2.1952124 0.22737793 2.3904248 -0.68579102 2.59155273 C-58.60152097 15.13963963 -58.60152097 15.13963963 -115.8125 30.484375 C-120.18296376 31.78205669 -124.56764762 32.93372655 -129 34 C-129 35.32 -129 36.64 -129 38 C-123.20679627 39.89165836 -118.09606847 41.07689338 -112.125 39 C-108.01256335 37.68402027 -104.27363553 37.22297536 -100 38 C-97.375 40.0625 -97.375 40.0625 -96 43 C-96.17211915 46.38501003 -96.48141231 48.96282462 -98 52 C-97.28851807 52.11738525 -96.57703613 52.23477051 -95.84399414 52.35571289 C-92.83719667 53.03688196 -90.30980627 54.05113921 -87.49609375 55.30859375 C-86.38484131 55.79956543 -85.27358887 56.29053711 -84.12866211 56.79638672 C-83.53068817 57.06255798 -82.93271423 57.32872925 -82.31661987 57.60296631 C-69.39625444 63.34101443 -56.36810557 68.82189432 -43.29397583 74.19900513 C-41.42153468 74.96987851 -39.55013507 75.74328773 -37.67990112 76.51950073 C-27.70851359 80.65477346 -17.69891229 84.57446946 -7.47265625 88.0390625 C-6.59572617 88.33976654 -5.71879608 88.64047058 -4.81529236 88.95028687 C0.96526691 90.95926102 0.96526691 90.95926102 7 91 C9.6183349 88.69316619 9.6183349 88.69316619 12 85.6875 C15.10022332 81.98176431 17.69866033 79.25052237 22 77 C21.55988509 81.44408711 18.49957133 84.05730923 15.5625 87.125 C15.05912109 87.66253906 14.55574219 88.20007813 14.03710938 88.75390625 C8.19380443 94.97745282 8.19380443 94.97745282 5.01171875 95.34765625 C-0.03712696 95.20250684 -4.52781285 93.23495463 -9.1875 91.4375 C-10.94802661 90.75958874 -12.71225506 90.09119388 -14.48046875 89.43359375 C-15.25285889 89.13509521 -16.02524902 88.83659668 -16.82104492 88.52905273 C-19.36171539 87.9121751 -20.59508966 87.99194819 -23 89 C-24.55837847 90.4280812 -24.55837847 90.4280812 -25.890625 92.296875 C-26.695 93.34766235 -26.695 93.34766235 -27.515625 94.41967773 C-28.08796875 95.18868408 -28.6603125 95.95769043 -29.25 96.75 C-29.8584375 97.55058838 -30.466875 98.35117676 -31.09375 99.17602539 C-32.39801785 100.89367589 -33.69801167 102.61457857 -34.99414062 104.33837891 C-36.97704881 106.96954554 -38.97742807 109.58635469 -40.984375 112.19921875 C-49.19934964 122.90491443 -57.26461627 133.71385539 -65.23828125 144.60009766 C-67.10093123 147.13749363 -68.97138552 149.66898376 -70.84375 152.19921875 C-71.47651855 153.05499512 -72.10928711 153.91077148 -72.76123047 154.79248047 C-73.967658 156.42370198 -75.1749579 158.05427882 -76.38330078 159.68408203 C-79.36720411 163.72392285 -82.25733633 167.79235256 -85 172 C-74.85877651 170.96445253 -65.20290887 168.67771827 -55.35351562 166.12060547 C-50.58457102 164.88349605 -45.88866409 163.67805101 -41 163 C-41.56347656 164.8684082 -41.56347656 164.8684082 -43 167 C-45.38721512 167.91201036 -47.51365043 168.54854495 -49.984375 169.10546875 C-50.6775885 169.27500565 -51.370802 169.44454254 -52.08502197 169.61921692 C-54.30327495 170.15751667 -56.52624542 170.67245689 -58.75 171.1875 C-60.23212507 171.54475754 -61.71390128 171.90346572 -63.1953125 172.26367188 C-79.07348817 176.08763431 -79.07348817 176.08763431 -86.125 176.375 C-86.95257813 176.42398438 -87.78015625 176.47296875 -88.6328125 176.5234375 C-92.21458109 175.73142926 -93.04108069 174.06253582 -95 171 C-96.45739936 168.07649172 -97.71038886 165.08889258 -98.9375 162.0625 C-99.28594971 161.2156665 -99.63439941 160.36883301 -99.9934082 159.49633789 C-104.99476838 147.23692037 -108.98388898 134.89089397 -112.42236328 122.12060547 C-113.24752535 119.09129113 -114.12400948 116.07745534 -115 113.0625 C-118.70784184 100.1147163 -122.01079517 87.0561191 -125.3125 74 C-125.5791748 72.95473145 -125.84584961 71.90946289 -126.12060547 70.83251953 C-126.36568848 69.85653809 -126.61077148 68.88055664 -126.86328125 67.875 C-127.08282471 67.00617188 -127.30236816 66.13734375 -127.52856445 65.2421875 C-128 63 -128 63 -128 60 C-129.2375 60.12375 -130.475 60.2475 -131.75 60.375 C-139.00142514 60.3520887 -145.89306132 57.07102031 -151.02734375 51.99609375 C-154.90388682 47.00113483 -157.36837388 42.44654282 -157 36 C-156.01 36 -155.02 36 -154 36 C-153.73445313 36.74765625 -153.46890625 37.4953125 -153.1953125 38.265625 C-152.84210938 39.25046875 -152.48890625 40.2353125 -152.125 41.25 C-151.60292969 42.71179688 -151.60292969 42.71179688 -151.0703125 44.203125 C-149.48744249 49.02683299 -149.48744249 49.02683299 -145.8125 52.0625 C-144.884375 52.371875 -143.95625 52.68125 -143 53 C-141.865625 53.515625 -140.73125 54.03125 -139.5625 54.5625 C-128.50017229 59.02624627 -117.85325419 57.25759307 -107 53 C-104.37998746 51.61775074 -102.10927778 50.10927778 -100 48 C-99.83333333 45.5 -99.83333333 45.5 -100 43 C-101.11258591 41.67254834 -101.11258591 41.67254834 -103.9375 41.75 C-107.12543054 41.77591813 -109.67903833 42.4713002 -112.6875 43.5 C-119.11606841 45.52543936 -126.19127389 46.8621778 -132.46875 43.79296875 C-135.95992678 41.29475348 -138.43212001 39.06717383 -140 35 C-140 33.68 -140 32.36 -140 31 C-138.125 31.125 -138.125 31.125 -136 32 C-134.875 35 -134.875 35 -134 38 C-133.34 38.33 -132.68 38.66 -132 39 C-132 37.02 -132 35.04 -132 33 C-125.00094509 29.17666432 -118.13317493 26.60626137 -110.4375 24.5625 C-109.35903809 24.26811035 -108.28057617 23.9737207 -107.16943359 23.67041016 C-97.43559022 21.04471331 -87.63779206 18.70035205 -77.82421875 16.39453125 C-72.83268438 15.21477284 -67.88470022 13.91394376 -62.9375 12.5625 C-50.94684045 9.31793732 -38.77251002 6.82520899 -26.6305542 4.2212677 C-22.76155433 3.38888181 -18.90120397 2.52668288 -15.046875 1.62890625 C-14.20648682 1.43433838 -13.36609863 1.23977051 -12.50024414 1.03930664 C-11.01094651 0.69201872 -9.52301305 0.33880025 -8.03686523 -0.02172852 C-4.81037021 -0.7685004 -3.21566752 -1.07188917 0 0 Z M-107.0625 55.8125 C-112.50119471 58.39404259 -118.14542112 59.69237832 -124 61 C-123.44606121 66.77619259 -122.65015324 72.40153242 -121.375 78.0625 C-121.20387695 78.82506104 -121.03275391 79.58762207 -120.85644531 80.37329102 C-118.63608563 89.9493087 -115.79090813 99.34536885 -112.96630859 108.75683594 C-111.9775453 112.07536338 -111.01160889 115.39984657 -110.05078125 118.7265625 C-106.8556004 129.74698157 -103.54054426 140.7092745 -99.8125 151.5625 C-99.5038501 152.47136963 -99.1952002 153.38023926 -98.87719727 154.31665039 C-96.71872346 160.47365539 -94.04146204 166.2304293 -91 172 C-87.11266604 170.70422201 -85.89270228 168.3730104 -83.6875 165.125 C-82.78920254 163.83623319 -81.8893801 162.5485284 -80.98828125 161.26171875 C-80.50568848 160.56997559 -80.0230957 159.87823242 -79.52587891 159.16552734 C-76.86152875 155.3842816 -74.12019581 151.66027787 -71.375 147.9375 C-70.78952393 147.1431958 -70.20404785 146.3488916 -69.60083008 145.53051758 C-64.41269127 138.51577522 -59.13286359 131.57245361 -53.83276367 124.64208984 C-49.26538859 118.66958211 -44.7432253 112.66573916 -40.25244141 106.63549805 C-36.37584213 101.45039576 -32.37971848 96.36467506 -28.29956055 91.33813477 C-25.79015801 88.52112037 -25.79015801 88.52112037 -25 85 C-25.89678467 84.62939453 -26.79356934 84.25878906 -27.7175293 83.87695312 C-32.0423934 82.0883448 -36.3650314 80.29438807 -40.6875 78.5 C-41.87909225 78.00595169 -41.87909225 78.00595169 -43.09475708 77.50192261 C-52.58436835 73.56421666 -62.04463606 69.56956925 -71.453125 65.44140625 C-72.71604118 64.88862503 -72.71604118 64.88862503 -74.00447083 64.32467651 C-78.08404304 62.53800364 -82.15883014 60.74150894 -86.22729492 58.9296875 C-87.71257114 58.27698699 -89.19799633 57.62462535 -90.68359375 56.97265625 C-91.35291931 56.67025528 -92.02224487 56.36785431 -92.71185303 56.05628967 C-98.12602218 53.69795375 -101.78827024 53.09916793 -107.0625 55.8125 Z " fill="#111414" transform="translate(467,227)"/>
<path d="M0 0 C10.67026961 -0.7429975 18.95461054 1.05973552 27.25 8.0625 C42.16643662 22.55342813 46.90665418 42.84076702 47.375 63 C47.17376722 71.55239323 45.608212 79.34024825 40 86 C39.01 86 38.02 86 37 86 C36.8040625 85.40832031 36.608125 84.81664062 36.40625 84.20703125 C34.72008786 79.28618504 34.72008786 79.28618504 31.05859375 75.88671875 C30.00865234 75.44779297 30.00865234 75.44779297 28.9375 75 C25.65697126 73.21447237 25.08366659 72.28051007 23.9921875 68.62109375 C23.32395924 64.9141996 22.85918678 61.17602456 22.36279297 57.44287109 C19.29860745 36.81013876 10.88660916 17.64995217 0 0 Z " fill="#FBFBFB" transform="translate(486,71)"/>
<path d="M0 0 C5.02898754 1.43685358 6.95677502 3.94236669 10 8 C11.53597454 11.07194908 11.2265038 13.60244293 11 17 C8.37183558 24.42069954 2.9067053 29.34146034 -4.0625 32.6875 C-14.43508695 36.97862501 -26.91216402 41.92519856 -38.16015625 38.3046875 C-43.40291933 35.65547813 -46.18575887 31.44272339 -48 26 C-48.59581415 20.97813789 -48.48084839 18.07516439 -45.5625 13.875 C-42.04463772 9.60632299 -37.73648336 6.77873691 -33 4 C-32.31292969 4.42152344 -31.62585938 4.84304687 -30.91796875 5.27734375 C-30.01691406 5.82519531 -29.11585938 6.37304688 -28.1875 6.9375 C-27.29417969 7.48277344 -26.40085937 8.02804688 -25.48046875 8.58984375 C-19.5243954 11.9758949 -13.66764558 11.69971031 -7.1875 10 C-3.02328251 7.38715766 -1.71830973 4.49321986 0 0 Z " fill="#D9C89F" transform="translate(523,161)"/>
<path d="M0 0 C16.83324839 12.90864273 26.93173909 30.7250776 30.91015625 51.51171875 C33.33879359 71.0428611 30.77704099 91.19130236 18.625 107.1875 C6.2747358 122.63345237 -11.53333836 129.91707626 -30.625 133.25 C-52.20757527 134.72338673 -69.90912702 132.08023778 -88.625 121.25 C-89.59566406 120.693125 -90.56632812 120.13625 -91.56640625 119.5625 C-104.42711123 111.39447974 -111.25972854 96.71157196 -114.625 82.25 C-118.7294474 59.14454435 -114.37381894 37.93306273 -101.75 18.33984375 C-89.41916578 1.71890679 -69.31281178 -6.51239068 -49.625 -10.33203125 C-32.71329898 -12.68821876 -14.10748795 -9.86173234 0 0 Z M-91.625 12.25 C-92.223125 12.745 -92.82125 13.24 -93.4375 13.75 C-104.58852226 23.70626987 -111.08491339 40.70473758 -112.625 55.25 C-113.74317105 75.13032537 -111.73180586 93.96434871 -98.3125 109.6875 C-83.84104184 124.54810661 -64.55850909 130.10178789 -44.27563477 130.55078125 C-23.30865156 130.65053496 -3.94131926 125.17053234 11.625 110.5625 C24.91582169 96.59658895 29.07334696 79.04490414 28.7109375 60.2109375 C27.71398005 39.30778828 17.53925741 19.70107848 2.5625 5.4375 C-8.92863298 -4.07004455 -22.72369598 -7.32613155 -37.3125 -7.1875 C-39.02542236 -7.17396484 -39.02542236 -7.17396484 -40.77294922 -7.16015625 C-59.6765406 -6.77486012 -77.4309904 -0.52460864 -91.625 12.25 Z " fill="#111618" transform="translate(429.625,80.75)"/>
<path d="M0 0 C0.66 0 1.32 0 2 0 C3.76226895 2.09062334 5.42099835 4.19248536 7.0625 6.375 C11.77807661 12.5170463 16.75645038 18.29962598 22 24 C23.25518083 25.41207844 24.50550927 26.8284912 25.75 28.25 C26.26046875 28.83265625 26.7709375 29.4153125 27.296875 30.015625 C27.85890625 30.67046875 28.4209375 31.3253125 29 32 C29.91265625 32.9178125 30.8253125 33.835625 31.765625 34.78125 C34 38 34 38 33.9375 41.453125 C33.628125 42.70609375 33.31875 43.9590625 33 45.25 C32.67834545 46.65043698 32.35944722 48.05150923 32.04296875 49.453125 C31.78265869 50.55237305 31.78265869 50.55237305 31.51708984 51.67382812 C30.61039261 55.75268142 29.97334499 59.87547246 29.3125 64 C29.05897937 65.54173013 28.80510743 67.08340255 28.55078125 68.625 C28.36902344 69.73875 28.18726563 70.8525 28 72 C27.01 72.33 26.02 72.66 25 73 C16.54884027 60.59297827 8.48386405 48.01649874 1 35 C0.5978125 34.30793457 0.195625 33.61586914 -0.21875 32.90283203 C-7.19780805 20.73491702 -7.19780805 20.73491702 -5.80078125 14.30859375 C-4.10840545 9.42959815 -2.15197461 4.69305164 0 0 Z " fill="#353535" transform="translate(13,193)"/>
<path d="M0 0 C4.42852271 4.00675864 6.41889282 8.07270676 7 14 C7.20109375 14.96486328 7.20109375 14.96486328 7.40625 15.94921875 C7.72738122 18.29080058 7.75869381 19.75085445 7 22 C-0.42863963 28.87264997 -11.26665688 31.62424064 -21.16015625 31.27734375 C-32.89267642 30.13152679 -46.19102989 25.79297397 -54.25 16.8125 C-56.82994269 13.54767562 -59.11728026 10.64192363 -58.8125 6.375 C-58 4 -58 4 -55 2 C-50.32986111 2.26051115 -47.61493523 3.63425698 -43.9375 6.4375 C-36.18207552 12.30613875 -29.61703876 12.86746118 -20 12 C-16.69053646 11.09161609 -13.93963673 9.75247574 -11 8 C-10.2678125 7.57976562 -9.535625 7.15953125 -8.78125 6.7265625 C-5.46941757 4.74666268 -2.65985783 2.81488022 0 0 Z " fill="#C9C6A9" transform="translate(136,400)"/>
<path d="M0 0 C4.0906602 1.41031787 6.99640611 3.37949897 10.375 6.0625 C14.80158166 9.47826018 19.32756229 12.56630139 24.125 15.4375 C24.73738525 15.81213379 25.34977051 16.18676758 25.98071289 16.57275391 C29.53026757 18.69823033 33.08765651 20.51437695 36.88671875 22.15625 C48.8238351 27.54016184 48.8238351 27.54016184 50.98291016 32.05566406 C52.3816951 37.34300275 52.24489809 42.58075509 52 48 C51.98907383 49.68616453 51.98625137 51.37240427 51.9921875 53.05859375 C51.99605469 55.00958984 51.99605469 55.00958984 52 57 C47.61659506 55.4978219 44.08670925 53.14578129 40.375 50.4375 C39.75890869 49.99132324 39.14281738 49.54514648 38.50805664 49.08544922 C28.03440689 41.43449483 18.33460424 32.98962973 9 24 C8.48888672 23.51708496 7.97777344 23.03416992 7.45117188 22.53662109 C-0.5078559 14.93299971 -0.5078559 14.93299971 -1.6484375 10.453125 C-1.70834676 6.78667813 -0.92411163 3.53058032 0 0 Z " fill="#424241" transform="translate(60,156)"/>
<path d="M0 0 C3.63 2.31 7.26 4.62 11 7 C9.67169437 10.32076407 8.72155578 12.58559719 6.875 15.4375 C4.93344061 18.86291276 4.10563805 21.01602403 5 25 C9.08363704 31.50613359 15.4190743 35.71997175 21.62109375 40.01953125 C22.40613281 40.67308594 23.19117188 41.32664062 24 42 C24 45.04953464 23.60483667 46.19772998 22.3203125 48.87109375 C21.96839844 49.61037109 21.61648437 50.34964844 21.25390625 51.11132812 C20.88136719 51.87896484 20.50882813 52.64660156 20.125 53.4375 C19.76019531 54.20126953 19.39539063 54.96503906 19.01953125 55.75195312 C17.3768447 59.18367466 15.70698891 62.59978057 14 66 C11.3528612 64.40762057 8.75965844 62.77485196 6.1953125 61.05078125 C3.06323526 58.93461685 3.06323526 58.93461685 -0.3203125 57.48046875 C-4.22253714 55.31419617 -5.91040273 53.99004996 -8 50 C-8.42579196 42.11997183 -6.41288029 34.25026537 -4.75927734 26.59423828 C-3.79868138 22.04700556 -3.02673012 17.478842 -2.26391602 12.89501953 C-1.54616439 8.58987366 -0.77279121 4.29556818 0 0 Z " fill="#50504F" transform="translate(107,282)"/>
<path d="M0 0 C4.9632569 0.39271561 8.947594 2.27868627 12.6328125 5.62109375 C16.53390354 11.3411661 17.25031097 16.57680384 17.0703125 23.37109375 C17.05709961 24.24781738 17.04388672 25.12454102 17.03027344 26.02783203 C16.73983029 36.52832003 15.2871268 45.96677945 7.6328125 53.62109375 C5.1328125 53.49609375 5.1328125 53.49609375 2.6328125 52.62109375 C0.54335994 49.49729372 0.44177642 47.06807072 0.61328125 43.375 C0.64228516 42.37275391 0.67128906 41.37050781 0.70117188 40.33789062 C0.78046958 38.23845129 0.87157999 36.13942421 0.97460938 34.04101562 C1.21177727 27.7994224 1.21177727 27.7994224 -1.75390625 22.4609375 C-5.40257047 19.89214699 -7.57128819 19.41843439 -11.9921875 19.05859375 C-12.99507813 18.97480469 -13.99796875 18.89101563 -15.03125 18.8046875 C-15.80210937 18.74410156 -16.57296875 18.68351562 -17.3671875 18.62109375 C-16.0042087 17.04842591 -14.63900648 15.47765409 -13.265625 13.9140625 C-11.26973598 11.56241961 -11.26973598 11.56241961 -9.28125 8.671875 C-3.65144314 0.95805191 -3.65144314 0.95805191 0 0 Z " fill="#D8C79E" transform="translate(429.3671875,399.37890625)"/>
<path d="M0 0 C3.40970173 2.85463401 6.7554472 5.75636915 10.0078125 8.7890625 C10.5455127 9.28954102 11.08321289 9.79001953 11.63720703 10.30566406 C12.76396344 11.36115666 13.88466216 12.42314957 14.99951172 13.49121094 C18.40687893 16.71032037 21.7772193 19.08112435 25.8125 21.5 C28.3953251 23.4851811 29.77012911 24.87788758 30.43261719 28.11181641 C30.96244179 34.09931385 30.52877998 40.02738675 30 46 C29.91363281 47.23621094 29.82726562 48.47242188 29.73828125 49.74609375 C29.54559149 52.17524825 29.31036724 54.58356935 29 57 C24.76230069 55.42085733 22.31690445 52.24568645 19.5 48.875 C18.98244141 48.26333984 18.46488281 47.65167969 17.93164062 47.02148438 C11.98642759 39.91448062 6.41595713 32.51580798 1 25 C0.23558594 23.96617187 -0.52882812 22.93234375 -1.31640625 21.8671875 C-4.00117992 17.29497434 -3.63204678 13.15081803 -3 8 C-2.21726257 5.15083577 -1.22446177 2.70401974 0 0 Z " fill="#3C3C3C" transform="translate(37,171)"/>
<path d="M0 0 C3.72287406 2.0455352 6.16706341 4.69627317 8.4375 8.25 C9.61648529 14.0139281 10.08157424 19.67128943 7.25 25 C5.03942726 27.94743031 4.29259789 28.74623497 1 30 C-4.26713446 30.6842501 -8.68491358 30.63405953 -13.5 28.3125 C-17.87068692 24.26961459 -19.18548096 21.56777147 -19.4375 15.625 C-19.27769272 10.23513614 -18.28941145 7.26734458 -15 3 C-10.76924168 -0.85745612 -5.44091903 -1.05089402 0 0 Z " fill="#070707" transform="translate(417,132)"/>
<path d="M0 0 C2.125 1.375 2.125 1.375 4.625 3.5 C10.40760831 6.59782588 16.57648164 6.25583789 22.87890625 4.69140625 C24.54527883 4.15969347 26.20712256 3.61350184 27.86328125 3.05078125 C31.14107877 2.07140479 33.72762248 2.02110651 37.125 2.375 C39.125 4.375 39.125 4.375 39.625 6.6875 C39.02332445 9.92150606 37.76989698 11.21316863 35.17578125 13.17578125 C24.71769754 19.2912702 13.56369061 20.80002372 1.875 18.125 C-4.18798498 16.47287556 -8.29824911 14.74012633 -11.875 9.375 C-11.8125 7.4375 -11.8125 7.4375 -10.875 5.375 C-3.68794964 -1.22931655 -3.68794964 -1.22931655 0 0 Z " fill="#D1C6A2" transform="translate(328.875,265.625)"/>
<path d="M0 0 C3.48715894 1.98396827 6.19673639 4.39347279 8 8 C8.35017306 13.3401391 8.46830225 16.66462219 5 21 C1.21499493 24.36082347 -1.47987227 24.51116196 -6.3984375 24.3515625 C-11.8019523 23.6213578 -15.59236817 21.33725023 -19.5 17.625 C-21.40818542 14.28567552 -21.75818322 12.79091609 -21 9 C-15.75311759 0.90964583 -9.54672691 -1.58887698 0 0 Z " fill="#848A8F" transform="translate(512,146)"/>
<path d="M0 0 C2.17434741 1.41936567 4.32993035 2.85413284 6.46289062 4.33544922 C8.90860653 6.02939331 8.90860653 6.02939331 11.39648438 7.10595703 C14.05741893 8.50087806 15.36827968 9.4515455 17 12 C17.70354559 18.03510203 17.10755159 23.85190029 16.5 29.875 C16.36335318 31.53354272 16.23049919 33.19240258 16.1015625 34.8515625 C15.77817757 38.90602949 15.40314357 42.95271743 15 47 C13.38860811 45.66885018 11.78697233 44.32483004 10.22412109 42.93701172 C8.62931009 41.54807313 6.97838551 40.22258439 5.29541016 38.94189453 C1.06019118 35.39391392 -1.69087568 32.87799205 -2.61035156 27.29199219 C-2.66412489 23.11108394 -2.16023293 19.01426145 -1.625 14.875 C-1.47811775 13.42757761 -1.33614985 11.97964768 -1.19921875 10.53125 C-0.85595065 7.01317612 -0.44669153 3.50662407 0 0 Z " fill="#3F3F3F" transform="translate(67,198)"/>
<path d="M0 0 C0.66 0 1.32 0 2 0 C3.91303342 2.23482454 5.71866653 4.4765136 7.5 6.8125 C7.99886719 7.45509766 8.49773438 8.09769531 9.01171875 8.75976562 C11.10112435 11.46254901 13.10353174 14.15529761 15 17 C14.34 17 13.68 17 13 17 C12.96261719 17.65742188 12.92523437 18.31484375 12.88671875 18.9921875 C12.23350804 28.44453071 10.64633683 37.68111226 9 47 C5.52616991 42.93926711 2.94955119 38.65135582 0.375 34 C-0.01945313 33.30132812 -0.41390625 32.60265625 -0.8203125 31.8828125 C-4.75699613 24.83402086 -6.92114843 20.06882341 -5 12 C-3.50794002 7.91646741 -1.81174668 3.95107856 0 0 Z " fill="#313131" transform="translate(13,193)"/>
<path d="M0 0 C4.81156545 1.64767633 8.3135405 4.34185025 12.24902344 7.50512695 C15.6434413 10.16971372 18.74428715 11.67752289 22.75 13.1875 C25.1953125 14.51953125 25.1953125 14.51953125 27 17 C28.26568505 24.22850058 27.59983518 31.72630638 27 39 C24.12412774 37.68540518 21.95542366 36.24593563 19.64453125 34.09375 C19.02586182 33.51971436 18.40719238 32.94567871 17.76977539 32.35424805 C14.49635833 29.25313759 11.23932717 26.13669673 8 23 C7.47986328 22.50806152 6.95972656 22.01612305 6.42382812 21.50927734 C-0.57117853 14.84655776 -0.57117853 14.84655776 -1.57421875 10.52734375 C-1.65227317 6.83476945 -0.94079812 3.55589799 0 0 Z " fill="#3C3C3C" transform="translate(60,156)"/>
<path d="M0 0 C3.28677498 1.51380138 4.98761376 4.20958805 7.0546875 7.06640625 C7.49087402 7.65188232 7.92706055 8.2373584 8.37646484 8.84057617 C9.24815658 10.01224475 10.11559473 11.18709123 10.97851562 12.36523438 C12.56637565 14.53143691 14.18581414 16.67332627 15.8046875 18.81640625 C16.5884375 19.86828125 17.3721875 20.92015625 18.1796875 22.00390625 C15.5396875 25.30390625 12.8996875 28.60390625 10.1796875 32.00390625 C4.15385759 29.59357429 0.07666502 26.17569442 -4.8203125 22.00390625 C-5.48546875 21.44832031 -6.150625 20.89273437 -6.8359375 20.3203125 C-8.5078125 18.81640625 -8.5078125 18.81640625 -10.8203125 16.00390625 C-10.53693468 12.07525915 -9.10102914 9.51085515 -6.8828125 6.31640625 C-6.35816406 5.54941406 -5.83351563 4.78242188 -5.29296875 3.9921875 C-2.33980223 0.00502103 -2.33980223 0.00502103 0 0 Z " fill="#69B1CD" transform="translate(124.8203125,289.99609375)"/>
<path d="M0 0 C4.66666667 4 9.33333333 8 14 12 C13.67 12.66 13.34 13.32 13 14 C12.77925159 15.73732806 12.60869362 17.48118407 12.46484375 19.2265625 C12.33432617 20.7734375 12.33432617 20.7734375 12.20117188 22.3515625 C12.0706543 23.97191406 12.0706543 23.97191406 11.9375 25.625 C11.84662109 26.71296875 11.75574219 27.8009375 11.66210938 28.921875 C11.43774049 31.61430157 11.21719886 34.30698709 11 37 C4.40557535 30.65154856 -3.52143132 22.82772025 -3.75 13.1875 C-3.32919571 8.40435795 -1.97343 4.35799126 0 0 Z " fill="#323232" transform="translate(37,171)"/>
<path d="M0 0 C0.99 0 1.98 0 3 0 C1.79349832 24.13003365 -17.19358816 42.28121318 -33.125 58.4375 C-34.36975098 59.70895874 -34.36975098 59.70895874 -35.63964844 61.00610352 C-36.42114258 61.78655029 -37.20263672 62.56699707 -38.0078125 63.37109375 C-38.70535645 64.07161865 -39.40290039 64.77214355 -40.12158203 65.49389648 C-42 67 -42 67 -45 67 C-44.43504582 63.26964079 -42.95173993 61.62712155 -40.25 59.0625 C-39.23679688 58.08990234 -39.23679688 58.08990234 -38.203125 57.09765625 C-37.47609375 56.40542969 -36.7490625 55.71320313 -36 55 C-35.18402344 54.18402344 -34.36804688 53.36804688 -33.52734375 52.52734375 C-31.92763779 50.92763779 -30.31218476 49.34339655 -28.67578125 47.78125 C-14.41375453 34.01426884 -5.17183645 19.33817106 0 0 Z " fill="#131617" transform="translate(193,240)"/>
<path d="M0 0 C0.66 0.33 1.32 0.66 2 1 C0.55771687 3.47248536 -0.80365407 5.77456578 -2.6875 7.9375 C-4.53310884 10.83774247 -4.48269064 12.62116554 -4 16 C-1.77601861 19.82524799 0.76734622 21.93723368 4.9453125 23.48828125 C9.77590723 24.69133811 14.66322622 25.19749262 19.1953125 22.875 C21.34413566 21.39064521 21.34413566 21.39064521 24 19 C24.495 20.485 24.495 20.485 25 22 C20.71471902 26.64238773 18.07213108 28.07772065 11.875 28.375 C5.0361459 28.32970958 -0.45976891 24.69348739 -6 21 C-7.7732461 22.26746453 -9.54350975 23.53910235 -11.3125 24.8125 C-12.29863281 25.52019531 -13.28476562 26.22789062 -14.30078125 26.95703125 C-16.93281129 28.84588402 -16.93281129 28.84588402 -18.73046875 30.76171875 C-20 32 -20 32 -22 32 C-20.64527694 26.41176736 -16.41886827 23.30998246 -12 20 C-10.68535911 19.29719025 -9.3567815 18.61754853 -8 18 C-8.12375 16.2365625 -8.12375 16.2365625 -8.25 14.4375 C-8.25 9.55784599 -6.799734 6.96628983 -4 3 C-1.75 1.0625 -1.75 1.0625 0 0 Z " fill="#0B0D0D" transform="translate(496,145)"/>
<path d="M0 0 C0 0.33 0 0.66 0 1 C-4.04083348 1.98262665 -8.0828058 2.96048735 -12.125 3.9375 C-13.26710938 4.21529297 -14.40921875 4.49308594 -15.5859375 4.77929688 C-16.69453125 5.04677734 -17.803125 5.31425781 -18.9453125 5.58984375 C-19.96125488 5.83597412 -20.97719727 6.08210449 -22.02392578 6.33569336 C-25.00427063 7.00095327 -27.98383543 7.52614364 -31 8 C-31.35288435 4.2064932 -31.28393415 2.44058747 -29.1875 -0.8125 C-21.72881342 -8.27118658 -8.4562778 -3.01145664 0 0 Z " fill="#6CC1E3" transform="translate(311,11)"/>
<path d="M0 0 C4.3243795 1.39906396 8.19891664 3.3528773 11 7 C11.86361203 10.27230848 11.8850553 13.44145944 11.875 16.8125 C11.895625 17.69615234 11.91625 18.57980469 11.9375 19.49023438 C11.98440843 21.6597492 11.99574089 23.8299823 12 26 C-0.59051983 15.32301253 -0.59051983 15.32301253 -1.40625 10.6953125 C-1.45534924 6.95149582 -0.98590939 3.60956908 0 0 Z " fill="#373737" transform="translate(60,156)"/>
<path d="M0 0 C3.26011642 0.69378511 4.79038253 1.45893991 7 4 C6.67 4.66 6.34 5.32 6 6 C5.34 5.67 4.68 5.34 4 5 C3.96261719 5.72960937 3.92523438 6.45921875 3.88671875 7.2109375 C3.27405431 16.94149034 1.7111992 26.41082711 0 36 C-1.921875 35.62890625 -1.921875 35.62890625 -4 35 C-5.25 32.9375 -5.25 32.9375 -6 31 C-5.34 31 -4.68 31 -4 31 C-3.94392578 29.90558594 -3.94392578 29.90558594 -3.88671875 28.7890625 C-3.27405431 19.05850966 -1.7111992 9.58917289 0 0 Z " fill="#414141" transform="translate(36,222)"/>
<path d="M0 0 C3.16115776 1.36983503 3.9927092 1.9890638 6 5 C5.5919351 6.60004394 5.16377948 8.19700978 4.64941406 9.76611328 C3.25978138 14.54624073 2.66150689 19.52911444 1.875 24.4375 C1.69324219 25.55060547 1.51148438 26.66371094 1.32421875 27.81054688 C0.87910692 30.53978519 0.43780997 33.26958252 0 36 C-3.96533203 32.35253906 -3.96533203 32.35253906 -4.27734375 29.1796875 C-4.16519531 28.08914062 -4.05304687 26.99859375 -3.9375 25.875 C-3.751875 24.04195312 -3.751875 24.04195312 -3.5625 22.171875 C-2.60973069 14.74460512 -1.32821636 7.3678417 0 0 Z " fill="#424242" transform="translate(26,210)"/>
<path d="M0 0 C7.83465143 1.54731642 15.95667687 6.23076312 21.80859375 11.5546875 C21.80859375 12.2146875 21.80859375 12.8746875 21.80859375 13.5546875 C17.43691539 12.97394794 14.4256757 11.34307847 10.68359375 9.0546875 C4.98262998 5.58577189 1.53021225 4.42786451 -5.19140625 4.5546875 C-4.86140625 7.5246875 -4.53140625 10.4946875 -4.19140625 13.5546875 C-5.51140625 13.2246875 -6.83140625 12.8946875 -8.19140625 12.5546875 C-8.4409463 11.12058382 -8.66533267 9.68208678 -8.87890625 8.2421875 C-9.00652344 7.44167969 -9.13414062 6.64117187 -9.265625 5.81640625 C-9.19140625 3.5546875 -9.19140625 3.5546875 -7.94921875 1.80078125 C-5.42590288 0.01203067 -3.03028049 -0.08956494 0 0 Z " fill="#0A1316" transform="translate(191.19140625,59.4453125)"/>
<path d="M0 0 C0.66 0 1.32 0 2 0 C3.15652656 3.47318258 2.85092924 6.06137279 2.22265625 9.640625 C1.94711914 11.24550781 1.94711914 11.24550781 1.66601562 12.8828125 C1.46685547 13.99398437 1.26769531 15.10515625 1.0625 16.25 C0.86720703 17.37664062 0.67191406 18.50328125 0.47070312 19.6640625 C-0.01226333 22.44406454 -0.50275423 25.22252265 -1 28 C-1.66 28 -2.32 28 -3 28 C-6.0321261 22.29960294 -6.62260067 18.27917654 -5 12 C-3.50052773 7.91946892 -1.81167997 3.95093308 0 0 Z " fill="#000000" transform="translate(13,193)"/>
<path d="M0 0 C4.35970831 1.34849837 8.31341438 3.04907846 12.375 5.125 C13.43460938 5.66382813 14.49421875 6.20265625 15.5859375 6.7578125 C16.38257813 7.16773438 17.17921875 7.57765625 18 8 C7.95087549 19.98297665 7.95087549 19.98297665 3 22 C4.65167557 18.4213696 6.78286492 15.25179812 9 12 C8.43410156 11.38511719 7.86820313 10.77023437 7.28515625 10.13671875 C6.55167969 9.32847656 5.81820312 8.52023437 5.0625 7.6875 C4.33160156 6.88699219 3.60070312 6.08648437 2.84765625 5.26171875 C1 3 1 3 0 0 Z " fill="#171B1C" transform="translate(133,299)"/>
<path d="M0 0 C0.02684679 2.64590014 0.04676357 5.29153096 0.0625 7.9375 C0.07087891 8.69224609 0.07925781 9.44699219 0.08789062 10.22460938 C0.09652441 12.14994313 0.05224333 14.07535581 0 16 C-0.33 16.33 -0.66 16.66 -1 17 C-2.98 17 -4.96 17 -7 17 C-7 11.72 -7 6.44 -7 1 C-4 0 -4 0 0 0 Z " fill="#F6F6F6" transform="translate(508,201)"/>
<path d="M0 0 C0.99 0.33 1.98 0.66 3 1 C3.02911003 4.89581756 3.04683587 8.791607 3.0625 12.6875 C3.07087891 13.79029297 3.07925781 14.89308594 3.08789062 16.02929688 C3.09111328 17.09599609 3.09433594 18.16269531 3.09765625 19.26171875 C3.10289307 20.24100342 3.10812988 21.22028809 3.11352539 22.22924805 C3.00308543 24.92469572 2.60534166 27.37545639 2 30 C0.68 29.34 -0.64 28.68 -2 28 C-1.86189095 23.52055965 -1.71322584 19.04153217 -1.5625 14.5625 C-1.52318359 13.28310547 -1.48386719 12.00371094 -1.44335938 10.68554688 C-1.40146484 9.47060547 -1.35957031 8.25566406 -1.31640625 7.00390625 C-1.27974854 5.87799072 -1.24309082 4.7520752 -1.20532227 3.59204102 C-1 1 -1 1 0 0 Z " fill="#424241" transform="translate(59,192)"/>
<path d="M0 0 C1.32 0.66 2.64 1.32 4 2 C3.6913501 2.70809814 3.3827002 3.41619629 3.06469727 4.14575195 C1.99227545 7.02070804 1.43699941 9.64046933 0.96484375 12.66796875 C0.79533203 13.72564453 0.62582031 14.78332031 0.45117188 15.87304688 C0.28166016 16.96681641 0.11214844 18.06058594 -0.0625 19.1875 C-0.40466248 21.36894478 -0.74957512 23.54996054 -1.09765625 25.73046875 C-1.24726807 26.69364014 -1.39687988 27.65681152 -1.55102539 28.64916992 C-2 31 -2 31 -3 33 C-3.66 33 -4.32 33 -5 33 C-5.26293528 26.00252878 -4.25754023 19.44742036 -3.0625 12.5625 C-2.88009766 11.46228516 -2.69769531 10.36207031 -2.50976562 9.22851562 C-1.13502139 1.13502139 -1.13502139 1.13502139 0 0 Z " fill="#373737" transform="translate(31,215)"/>
<path d="M0 0 C0.054348 2.0622048 0.09294961 4.12482816 0.125 6.1875 C0.14820313 7.33605469 0.17140625 8.48460937 0.1953125 9.66796875 C0.00105868 12.9819389 -0.33388076 15.13406533 -2 18 C-3.32 18.33 -4.64 18.66 -6 19 C-6 13.06 -6 7.12 -6 1 C-3 0 -3 0 0 0 Z " fill="#F6F6F6" transform="translate(517,198)"/>
<path d="M0 0 C-0.33 0.99 -0.66 1.98 -1 3 C-3.9921875 4.0625 -3.9921875 4.0625 -7.875 5 C-9.24230511 5.33806635 -10.60949175 5.6766122 -11.9765625 6.015625 C-12.6562207 6.17998047 -13.33587891 6.34433594 -14.03613281 6.51367188 C-17.65876441 7.41077309 -21.23927553 8.46209667 -24.828125 9.484375 C-27 10 -27 10 -30 10 C-29.67 8.68 -29.34 7.36 -29 6 C-25.10661739 4.99028956 -21.20993415 3.99394645 -17.3125 3 C-16.20970703 2.71382812 -15.10691406 2.42765625 -13.97070312 2.1328125 C-12.90400391 1.86210937 -11.83730469 1.59140625 -10.73828125 1.3125 C-9.75899658 1.06113281 -8.77971191 0.80976563 -7.77075195 0.55078125 C-5.0970865 0.01929925 -2.71686266 -0.10407774 0 0 Z " fill="#0E191E" transform="translate(311,12)"/>
<path d="M0 0 C0.66 1.65 1.32 3.3 2 5 C1.48050781 5.23074219 0.96101563 5.46148437 0.42578125 5.69921875 C-4.28541042 7.90241929 -7.54373147 10.1116979 -11 14 C-12.83449724 10.90428591 -13.6450399 8.59379371 -13 5 C-9.41152233 2.15032656 -4.64366559 0 0 0 Z " fill="#A2C7C8" transform="translate(327,260)"/>
<path d="M0 0 C1.65 1.32 3.3 2.64 5 4 C4.67 4.33 4.34 4.66 4 5 C3.86659985 6.7559663 3.79656524 8.51683432 3.75390625 10.27734375 C3.72103516 11.34791016 3.68816406 12.41847656 3.65429688 13.52148438 C3.59320659 15.79482297 3.53590136 18.0682665 3.48242188 20.34179688 C3.44826172 21.41365234 3.41410156 22.48550781 3.37890625 23.58984375 C3.3538501 24.57847412 3.32879395 25.56710449 3.30297852 26.58569336 C3 29 3 29 1 31 C-0.5625 28.75 -0.5625 28.75 -2 26 C-1.71574587 24.65534819 -1.37437881 23.32239532 -1 22 C-0.8562677 20.2683761 -0.75425068 18.53301667 -0.68359375 16.796875 C-0.64169922 15.8171875 -0.59980469 14.8375 -0.55664062 13.828125 C-0.51732422 12.81234375 -0.47800781 11.7965625 -0.4375 10.75 C-0.39431641 9.71875 -0.35113281 8.6875 -0.30664062 7.625 C-0.20074318 5.0834613 -0.09866557 2.54182804 0 0 Z " fill="#2F2F2F" transform="translate(55,188)"/>
<path d="M0 0 C3 0.25 3 0.25 5 2.25 C5.34490322 6.30261287 5.30163882 7.79754176 3 11.25 C0.6568787 10.99438677 -1.67843403 10.65729228 -4 10.25 C-5.38125018 7.48749964 -5.19079306 5.30268901 -5 2.25 C-3 0.25 -3 0.25 0 0 Z " fill="#F6F6F6" transform="translate(415,138.75)"/>
<path d="M0 0 C1.55004883 1.08520508 1.55004883 1.08520508 3 3 C2.8815918 6.00268555 2.8815918 6.00268555 2.19921875 9.63671875 C1.96396484 10.93544922 1.72871094 12.23417969 1.48632812 13.57226562 C1.22041898 14.94408159 0.95413812 16.31582554 0.6875 17.6875 C0.43138042 19.07067517 0.17680402 20.45413704 -0.07617188 21.83789062 C-0.7022924 25.22839233 -1.34414314 28.61514644 -2 32 C-4.04077148 30.22900391 -4.04077148 30.22900391 -6 28 C-5.34765625 24.3359375 -5.34765625 24.3359375 -4.68408203 22.22949219 C-3.98089084 19.93772132 -3.55703414 17.71816099 -3.18359375 15.3515625 C-3.05919922 14.57425781 -2.93480469 13.79695312 -2.80664062 12.99609375 C-2.68482422 12.21363281 -2.56300781 11.43117187 -2.4375 10.625 C-1.13372093 2.26744186 -1.13372093 2.26744186 0 0 Z " fill="#313131" transform="translate(21,202)"/>
<path d="M0 0 C1.32 0.33 2.64 0.66 4 1 C4 3.81357541 3.81013538 6.52284356 3.5625 9.32421875 C3.47226562 10.35224609 3.38203125 11.38027344 3.2890625 12.43945312 C3.19367187 13.51130859 3.09828125 14.58316406 3 15.6875 C2.90460937 16.77095703 2.80921875 17.85441406 2.7109375 18.97070312 C2.47511926 21.64724011 2.23809348 24.32366461 2 27 C-1.92112756 23.74800683 -1.92112756 23.74800683 -2.27050781 20.43457031 C-2.16577148 19.49194336 -2.06103516 18.54931641 -1.953125 17.578125 C-1.85 16.55332031 -1.746875 15.52851563 -1.640625 14.47265625 C-1.51171875 13.40917969 -1.3828125 12.34570312 -1.25 11.25 C-1.1365625 10.17105469 -1.023125 9.09210938 -0.90625 7.98046875 C-0.62346589 5.31758505 -0.32074819 2.65853339 0 0 Z " fill="#272727" transform="translate(46,181)"/>
<path d="M0 0 C0.66 0.33 1.32 0.66 2 1 C1.50940538 10.87956066 -0.02701352 20.33360714 -2 30 C-4.1998461 27.6541743 -5.0021185 26.53901369 -4.98925781 23.2668457 C-4.81233398 22.24679443 -4.63541016 21.22674316 -4.453125 20.17578125 C-4.2675 19.06525391 -4.081875 17.95472656 -3.890625 16.81054688 C-3.57351563 15.07901367 -3.57351563 15.07901367 -3.25 13.3125 C-3.0540625 12.14654297 -2.858125 10.98058594 -2.65625 9.77929688 C-1.17249076 1.17249076 -1.17249076 1.17249076 0 0 Z " fill="#585858" transform="translate(16,196)"/>
<path d="M0 0 C4.34664224 3.98722997 7.2587191 8.83373984 10 14 C6.74669064 13.38032203 4.58514867 12.75255341 2.51171875 10.0859375 C2.03347656 9.35632813 1.55523437 8.62671875 1.0625 7.875 C-0.33218244 5.70871232 -0.33218244 5.70871232 -2 4 C-5.75511206 3.32961907 -5.75511206 3.32961907 -9 4 C-9 3.01 -9 2.02 -9 1 C-5.64536662 -1.11217657 -3.71284034 -1.50281633 0 0 Z " fill="#020405" transform="translate(128,287)"/>
<path d="M0 0 C0.66 0.33 1.32 0.66 2 1 C1.67 8.26 1.34 15.52 1 23 C-3 19 -3 19 -3.49609375 16.484375 C-3.36383411 10.3122584 -2.552431 5.63661846 0 0 Z " fill="#000000" transform="translate(37,171)"/>
<path d="M0 0 C0.66 0 1.32 0 2 0 C4.29612756 13.6332574 4.29612756 13.6332574 4 20 C-0.875 17.25 -0.875 17.25 -2 15 C-1.74922443 12.43459479 -1.44070666 9.9214349 -1.0625 7.375 C-0.96259766 6.66859375 -0.86269531 5.9621875 -0.75976562 5.234375 C-0.51208041 3.48878393 -0.25676129 1.74427916 0 0 Z " fill="#313131" transform="translate(76,169)"/>
<path d="M0 0 C0.99 0 1.98 0 3 0 C2.55629496 6.87742809 1.23258665 12.85198614 -2 19 C-2.66 19.33 -3.32 19.66 -4 20 C-4 19.34 -4 18.68 -4 18 C-4.66 17.67 -5.32 17.34 -6 17 C-5.73445312 16.35933594 -5.46890625 15.71867188 -5.1953125 15.05859375 C-3.16454502 10.0854369 -1.35607166 5.19827469 0 0 Z " fill="#020304" transform="translate(193,240)"/>
<path d="M0 0 C0.66 0 1.32 0 2 0 C2.02905924 3.7499837 2.04681874 7.49993837 2.0625 11.25 C2.07087891 12.31347656 2.07925781 13.37695312 2.08789062 14.47265625 C2.09111328 15.49746094 2.09433594 16.52226562 2.09765625 17.578125 C2.10289307 18.52075195 2.10812988 19.46337891 2.11352539 20.43457031 C2.00968082 22.78123437 1.66706529 24.75644478 1 27 C0.34 27 -0.32 27 -1 27 C-1.11157151 17.92551747 -0.94242818 9.03721311 0 0 Z " fill="#393939" transform="translate(53,187)"/>
<path d="M0 0 C1.98185172 1.63007061 2.92643948 2.46164456 3.28051758 5.05297852 C3.23564209 5.82053467 3.1907666 6.58809082 3.14453125 7.37890625 C3.09876953 8.21744141 3.05300781 9.05597656 3.00585938 9.91992188 C2.94205078 10.79197266 2.87824219 11.66402344 2.8125 12.5625 C2.76802734 13.43841797 2.72355469 14.31433594 2.67773438 15.21679688 C2.27170567 21.72829433 2.27170567 21.72829433 0 24 C-1.76545169 22.23454831 -1.13231172 19.9153532 -1.13671875 17.56640625 C-1.13285156 16.84324219 -1.12898438 16.12007812 -1.125 15.375 C-1.12886719 14.67503906 -1.13273437 13.97507813 -1.13671875 13.25390625 C-1.12833958 8.73753305 -0.7368319 4.45607861 0 0 Z " fill="#585858" transform="translate(39,173)"/>
<path d="M0 0 C1.32 0.66 2.64 1.32 4 2 C3.67 2.99 3.34 3.98 3 5 C2.8535286 6.55266653 2.75305926 8.10995662 2.68359375 9.66796875 C2.64169922 10.56064453 2.59980469 11.45332031 2.55664062 12.37304688 C2.49766602 13.76620117 2.49766602 13.76620117 2.4375 15.1875 C2.39431641 16.12787109 2.35113281 17.06824219 2.30664062 18.03710938 C2.20061335 20.35792854 2.09854971 22.67885325 2 25 C1.01 24.34 0.02 23.68 -1 23 C-1.2487793 20.66162109 -1.2487793 20.66162109 -1.07421875 17.7734375 C-1.01943359 16.7421875 -0.96464844 15.7109375 -0.90820312 14.6484375 C-0.83537109 13.56820312 -0.76253906 12.48796875 -0.6875 11.375 C-0.62626953 10.28703125 -0.56503906 9.1990625 -0.50195312 8.078125 C-0.34835798 5.38430251 -0.18046592 2.69213428 0 0 Z " fill="#414141" transform="translate(41,176)"/>
<path d="M0 0 C1.32 0.66 2.64 1.32 4 2 C2.40517782 3.67561054 0.79883156 5.34025934 -0.8125 7 C-2.15248047 8.3921875 -2.15248047 8.3921875 -3.51953125 9.8125 C-6 12 -6 12 -9 12 C-8.45015228 8.12488273 -6.72444669 6.40423494 -3.9375 3.75 C-3.20402344 3.04359375 -2.47054687 2.3371875 -1.71484375 1.609375 C-1.14894531 1.07828125 -0.58304688 0.5471875 0 0 Z " fill="#000000" transform="translate(157,295)"/>
<path d="M0 0 C0.66 0 1.32 0 2 0 C2.33 5.28 2.66 10.56 3 16 C-1 13 -1 13 -1.42578125 10.87890625 C-1.38839844 10.11449219 -1.35101563 9.35007813 -1.3125 8.5625 C-1.28800781 7.80066406 -1.26351562 7.03882813 -1.23828125 6.25390625 C-1.0091534 4.08658217 -0.58725355 2.09597 0 0 Z " fill="#000000" transform="translate(60,156)"/>
<path d="M0 0 C0.33 0.99 0.66 1.98 1 3 C-0.24663331 3.50833591 -1.49749387 4.00631145 -2.75 4.5 C-3.44609375 4.7784375 -4.1421875 5.056875 -4.859375 5.34375 C-7 6 -7 6 -11 6 C-11.66 7.32 -12.32 8.64 -13 10 C-13.3125 7.6875 -13.3125 7.6875 -13 5 C-9.41152233 2.15032656 -4.64366559 0 0 0 Z " fill="#8EC7D6" transform="translate(327,260)"/>
<path d="M0 0 C0.99 0.495 0.99 0.495 2 1 C1.93489583 3.01822917 1.86979167 5.03645833 1.8046875 7.0546875 C1.81668311 9.23863645 1.81668311 9.23863645 4 11 C4.1953125 13.1640625 4.1953125 13.1640625 4.125 15.625 C4.10695313 16.44226563 4.08890625 17.25953125 4.0703125 18.1015625 C4.03550781 19.04128906 4.03550781 19.04128906 4 20 C3.01 19.67 2.02 19.34 1 19 C0.03794912 12.62641289 -0.10655578 6.44070471 0 0 Z " fill="#494948" transform="translate(71,164)"/>
<path d="M0 0 C4.95238095 4.95238095 4.95238095 4.95238095 6 8 C5.66840054 11.64759407 4.76726789 12.23273211 2 15 C1.34 10.05 0.68 5.1 0 0 Z " fill="#89C6D6" transform="translate(141,406)"/>
<path d="M0 0 C4 2 4 2 5 3 C5.25 6.375 5.25 6.375 5 10 C4.01 10.99 3.02 11.98 2 13 C1.34 8.71 0.68 4.42 0 0 Z " fill="#D6C49D" transform="translate(560,231)"/>
<path d="M0 0 C0.66 0.33 1.32 0.66 2 1 C1.814375 2.2375 1.62875 3.475 1.4375 4.75 C1.05288777 7.76279577 0.9125406 10.10010827 2 13 C0.68 12.67 -0.64 12.34 -2 12 C-2.24954005 10.56589632 -2.47392642 9.12739928 -2.6875 7.6875 C-2.81511719 6.88699219 -2.94273437 6.08648437 -3.07421875 5.26171875 C-3 3 -3 3 -1.51953125 1.20703125 C-1.01808594 0.80871094 -0.51664063 0.41039062 0 0 Z " fill="#060C0E" transform="translate(185,60)"/>
<path d="M0 0 C4.875 1.75 4.875 1.75 6 4 C5.34 4 4.68 4 4 4 C4 6.31 4 8.62 4 11 C2 10 2 10 0 8 C-0.36933645 5.24627091 -0.18336678 2.79634339 0 0 Z " fill="#363636" transform="translate(72,165)"/>
<path d="M0 0 C0 0.66 0 1.32 0 2 C-4.84241633 3.33583899 -8.93437617 4.25328119 -14 4 C-10.71830109 -0.24690447 -5.03017099 -2.0120684 0 0 Z " fill="#0A0B0B" transform="translate(407,396)"/>
<path d="M0 0 C0.33 0 0.66 0 1 0 C0.52060632 4.71403788 0.03165952 8.66579301 -2 13 C-2.99 13 -3.98 13 -5 13 C-4.54803755 11.39402675 -4.08817673 9.79027492 -3.625 8.1875 C-3.36976563 7.29417969 -3.11453125 6.40085938 -2.8515625 5.48046875 C-2 3 -2 3 0 0 Z " fill="#0A0B0C" transform="translate(457,163)"/>
<path d="M0 0 C-2.6598561 3.44216672 -5.90288286 3.99504674 -10 5 C-10.33 4.34 -10.66 3.68 -11 3 C-10 1 -10 1 -7.1875 -0.1875 C-4.14038924 -0.96421451 -2.86250637 -1.10096399 0 0 Z " fill="#1C1B19" transform="translate(362,266)"/>
<path d="M0 0 C0.33 0.99 0.66 1.98 1 3 C-1.89380576 7.17048478 -3.98990293 9.56854369 -9 11 C-7.44095325 7.17324889 -4.96833913 4.81992217 -2 2 C-1.34 1.34 -0.68 0.68 0 0 Z " fill="#181818" transform="translate(434,325)"/>
<path d="M0 0 C0.57234375 0.21527344 1.1446875 0.43054688 1.734375 0.65234375 C0.661875 1.22984375 -0.410625 1.80734375 -1.515625 2.40234375 C-4.5682779 4.13610199 -6.91159893 6.01583455 -9.265625 8.65234375 C-9.595625 7.33234375 -9.925625 6.01234375 -10.265625 4.65234375 C-9.02618224 3.78292881 -7.77355441 2.93228918 -6.515625 2.08984375 C-5.81953125 1.61417969 -5.1234375 1.13851563 -4.40625 0.6484375 C-2.265625 -0.34765625 -2.265625 -0.34765625 0 0 Z " fill="#AFC7BD" transform="translate(325.265625,265.34765625)"/>
<path d="M0 0 C-2 3 -2 3 -5.125 3.6875 C-6.07375 3.790625 -7.0225 3.89375 -8 4 C-8.33 3.34 -8.66 2.68 -9 2 C-8 0 -8 0 -6.1875 -0.6875 C-3.81180233 -1.02688538 -2.26664171 -0.72856341 0 0 Z " fill="#181F22" transform="translate(418,238)"/>
<path d="M0 0 C0 3.49889647 -0.54120332 4.0553603 -2.75 6.625 C-3.26046875 7.23601562 -3.7709375 7.84703125 -4.296875 8.4765625 C-6.19607419 10.17538747 -7.51275949 10.5998787 -10 11 C-6.79239749 7.19364503 -3.59253891 3.45436433 0 0 Z " fill="#091114" transform="translate(446,187)"/>
<path d="M0 0 C2.88575819 0.39803561 3.82189513 0.79009069 5.75 3.0625 C6.1625 3.701875 6.575 4.34125 7 5 C6.67 5.66 6.34 6.32 6 7 C2.535 5.02 2.535 5.02 -1 3 C-0.67 2.01 -0.34 1.02 0 0 Z " fill="#6DC2E4" transform="translate(123,290)"/>
<path d="M0 0 C-0.33 0.66 -0.66 1.32 -1 2 C-3.06640625 2.6328125 -3.06640625 2.6328125 -5.5625 3.125 C-6.38878906 3.29257813 -7.21507812 3.46015625 -8.06640625 3.6328125 C-8.70449219 3.75398437 -9.34257812 3.87515625 -10 4 C-9.67 3.01 -9.34 2.02 -9 1 C-3.79245283 -1.26415094 -3.79245283 -1.26415094 0 0 Z " fill="#0B0D0D" transform="translate(427,236)"/>
<path d="M0 0 C0.66 0.33 1.32 0.66 2 1 C0.12050295 4.57104439 -1.17053157 6.54744301 -5 8 C-5.33 7.34 -5.66 6.68 -6 6 C-4 4 -2 2 0 0 Z " fill="#0C1215" transform="translate(496,145)"/>
<path d="M0 0 C-2.39509338 2.89932357 -4.31245243 3.50168276 -8 4 C-7.6875 2.0625 -7.6875 2.0625 -7 0 C-3.86650268 -1.04449911 -3.01031744 -0.93423645 0 0 Z " fill="#161C1F" transform="translate(359,253)"/>
<path d="M0 0 C-2.39509338 2.89932357 -4.31245243 3.50168276 -8 4 C-7.67 2.68 -7.34 1.36 -7 0 C-3.98968256 -0.93423645 -3.13349732 -1.04449911 0 0 Z " fill="#0C171B" transform="translate(289,18)"/>
<path d="M0 0 C5.75 1.875 5.75 1.875 8 3 C7.67 3.99 7.34 4.98 7 6 C5.1875 5.8125 5.1875 5.8125 3 5 C1.25 2.4375 1.25 2.4375 0 0 Z " fill="#525252" transform="translate(139,302)"/>
<path d="M0 0 C-2.35277269 2.72426311 -4.62496331 3.8141763 -8 5 C-7.75 3.125 -7.75 3.125 -7 1 C-4.09342573 -1.03460199 -3.47133392 -1.15711131 0 0 Z " fill="#070C0E" transform="translate(343,258)"/>
<path d="M0 0 C0.33 0.66 0.66 1.32 1 2 C-1.75520215 4.95929119 -4.46627288 7.03681826 -8 9 C-6.4169423 4.7257442 -3.49431596 2.73468206 0 0 Z " fill="#0D1213" transform="translate(425,400)"/>
<path d="M0 0 C0.66 0.33 1.32 0.66 2 1 C2 3.97 2 6.94 2 10 C1.01 9.67 0.02 9.34 -1 9 C-0.67 6.03 -0.34 3.06 0 0 Z " fill="#2D2D2D" transform="translate(67,168)"/>
<path d="M0 0 C0.33 0.99 0.66 1.98 1 3 C-4.75 6.875 -4.75 6.875 -7 8 C-5.50902342 4.2047869 -3.24299151 2.38957269 0 0 Z " fill="#171717" transform="translate(488,304)"/>
<path d="M0 0 C0.99 0.33 1.98 0.66 3 1 C2.8125 2.875 2.8125 2.875 2 5 C-0.5625 6.25 -0.5625 6.25 -3 7 C-1.125 2.25 -1.125 2.25 0 0 Z " fill="#0D1518" transform="translate(148,413)"/>
<path d="M0 0 C0.99 0.33 1.98 0.66 3 1 C2.67 3.64 2.34 6.28 2 9 C1.34 8.67 0.68 8.34 0 8 C0 5.36 0 2.72 0 0 Z " fill="#3F3F3F" transform="translate(72,165)"/>
<path d="M0 0 C2.86724686 0.57344937 3.8614515 0.8614515 6 3 C3.69 3.33 1.38 3.66 -1 4 C-0.67 2.68 -0.34 1.36 0 0 Z " fill="#132329" transform="translate(297,14)"/>
</svg>
